{
	"asset":{
		"generator":"Khronos glTF Blender I/O v4.2.57",
		"version":"2.0"
	},
	"scene":0,
	"scenes":[
		{
			"name":"Scene",
			"nodes":[
				0,
				1,
				2
			]
		}
	],
	"nodes":[
		{
			"mesh":0,
			"name":"Cone.001"
		},
		{
			"mesh":1,
			"name":"Axe.007"
		},
		{
			"mesh":2,
			"name":"Cylinder.028"
		}
	],
	"materials":[
		{
			"doubleSided":true,
			"name":"vert.001",
			"pbrMetallicRoughness":{
				"baseColorFactor":[
					0,
					1,
					0,
					1
				],
				"metallicFactor":0,
				"roughnessFactor":0.5
			}
		},
		{
			"doubleSided":true,
			"name":"gris",
			"pbrMetallicRoughness":{
				"baseColorFactor":[
					0.5494534969329834,
					0.5494534969329834,
					0.5494534969329834,
					1
				],
				"metallicFactor":0,
				"roughnessFactor":0.5
			}
		},
		{
			"doubleSided":true,
			"name":"vert",
			"pbrMetallicRoughness":{
				"baseColorFactor":[
					0,
					1,
					0,
					1
				],
				"metallicFactor":0,
				"roughnessFactor":0.5
			}
		}
	],
	"meshes":[
		{
			"name":"Cone.017",
			"primitives":[
				{
					"attributes":{
						"POSITION":0,
						"NORMAL":1,
						"TEXCOORD_0":2
					},
					"indices":3,
					"material":0
				}
			]
		},
		{
			"name":"Cylinder.043",
			"primitives":[
				{
					"attributes":{
						"POSITION":4,
						"NORMAL":5,
						"TEXCOORD_0":6
					},
					"indices":7,
					"material":1
				}
			]
		},
		{
			"name":"Cylinder.053",
			"primitives":[
				{
					"attributes":{
						"POSITION":8,
						"NORMAL":9,
						"TEXCOORD_0":10
					},
					"indices":11,
					"material":1
				},
				{
					"attributes":{
						"POSITION":12,
						"NORMAL":13,
						"TEXCOORD_0":14
					},
					"indices":15,
					"material":2
				}
			]
		}
	],
	"accessors":[
		{
			"bufferView":0,
			"componentType":5126,
			"count":128,
			"max":[
				0.2676868438720703,
				4.523754119873047,
				0.26669949293136597
			],
			"min":[
				-0.26570892333984375,
				3.990356206893921,
				-0.26669836044311523
			],
			"type":"VEC3"
		},
		{
			"bufferView":1,
			"componentType":5126,
			"count":128,
			"type":"VEC3"
		},
		{
			"bufferView":2,
			"componentType":5126,
			"count":128,
			"type":"VEC2"
		},
		{
			"bufferView":3,
			"componentType":5123,
			"count":186,
			"type":"SCALAR"
		},
		{
			"bufferView":4,
			"componentType":5126,
			"count":192,
			"max":[
				0.029436111450195312,
				4.417652606964111,
				0.029436571523547173
			],
			"min":[
				-0.029436111450195312,
				3.4640181064605713,
				-0.029436571523547173
			],
			"type":"VEC3"
		},
		{
			"bufferView":5,
			"componentType":5126,
			"count":192,
			"type":"VEC3"
		},
		{
			"bufferView":6,
			"componentType":5126,
			"count":192,
			"type":"VEC2"
		},
		{
			"bufferView":7,
			"componentType":5123,
			"count":372,
			"type":"SCALAR"
		},
		{
			"bufferView":8,
			"componentType":5126,
			"count":98,
			"max":[
				0.19999980926513672,
				0.5,
				0.20000000298023224
			],
			"min":[
				-0.20000004768371582,
				-0.5,
				-0.20000000298023224
			],
			"type":"VEC3"
		},
		{
			"bufferView":9,
			"componentType":5126,
			"count":98,
			"type":"VEC3"
		},
		{
			"bufferView":10,
			"componentType":5126,
			"count":98,
			"type":"VEC2"
		},
		{
			"bufferView":11,
			"componentType":5123,
			"count":282,
			"type":"SCALAR"
		},
		{
			"bufferView":12,
			"componentType":5126,
			"count":197,
			"max":[
				0.19999980926513672,
				3.5,
				0.20000000298023224
			],
			"min":[
				-0.20000004768371582,
				0.5,
				-0.20000000298023224
			],
			"type":"VEC3"
		},
		{
			"bufferView":13,
			"componentType":5126,
			"count":197,
			"type":"VEC3"
		},
		{
			"bufferView":14,
			"componentType":5126,
			"count":197,
			"type":"VEC2"
		},
		{
			"bufferView":15,
			"componentType":5123,
			"count":858,
			"type":"SCALAR"
		}
	],
	"bufferViews":[
		{
			"buffer":0,
			"byteLength":1536,
			"byteOffset":0,
			"target":34962
		},
		{
			"buffer":0,
			"byteLength":1536,
			"byteOffset":1536,
			"target":34962
		},
		{
			"buffer":0,
			"byteLength":1024,
			"byteOffset":3072,
			"target":34962
		},
		{
			"buffer":0,
			"byteLength":372,
			"byteOffset":4096,
			"target":34963
		},
		{
			"buffer":0,
			"byteLength":2304,
			"byteOffset":4468,
			"target":34962
		},
		{
			"buffer":0,
			"byteLength":2304,
			"byteOffset":6772,
			"target":34962
		},
		{
			"buffer":0,
			"byteLength":1536,
			"byteOffset":9076,
			"target":34962
		},
		{
			"buffer":0,
			"byteLength":744,
			"byteOffset":10612,
			"target":34963
		},
		{
			"buffer":0,
			"byteLength":1176,
			"byteOffset":11356,
			"target":34962
		},
		{
			"buffer":0,
			"byteLength":1176,
			"byteOffset":12532,
			"target":34962
		},
		{
			"buffer":0,
			"byteLength":784,
			"byteOffset":13708,
			"target":34962
		},
		{
			"buffer":0,
			"byteLength":564,
			"byteOffset":14492,
			"target":34963
		},
		{
			"buffer":0,
			"byteLength":2364,
			"byteOffset":15056,
			"target":34962
		},
		{
			"buffer":0,
			"byteLength":2364,
			"byteOffset":17420,
			"target":34962
		},
		{
			"buffer":0,
			"byteLength":1576,
			"byteOffset":19784,
			"target":34962
		},
		{
			"buffer":0,
			"byteLength":1716,
			"byteOffset":21360,
			"target":34963
		}
	],
	"buffers":[
		{
			"byteLength":23076,
			"uri":"Bcn-Starboard.bin"
		}
	]
}
