{
	"asset":{
		"generator":"Khronos glTF Blender I/O v4.2.57",
		"version":"2.0"
	},
	"scene":0,
	"scenes":[
		{
			"name":"Scene",
			"nodes":[
				0,
				1,
				2,
				3
			]
		}
	],
	"nodes":[
		{
			"mesh":0,
			"name":"Cone 1.002"
		},
		{
			"mesh":1,
			"name":"Cone 1.008"
		},
		{
			"mesh":2,
			"name":"Axe.009"
		},
		{
			"mesh":3,
			"name":"Cylinder.033"
		}
	],
	"materials":[
		{
			"doubleSided":true,
			"name":"noir",
			"pbrMetallicRoughness":{
				"baseColorFactor":[
					0,
					0.005882382392883301,
					0,
					1
				],
				"metallicFactor":0,
				"roughnessFactor":0.5
			}
		},
		{
			"doubleSided":true,
			"name":"gris",
			"pbrMetallicRoughness":{
				"baseColorFactor":[
					0.5494534969329834,
					0.5494534969329834,
					0.5494534969329834,
					1
				],
				"metallicFactor":0,
				"roughnessFactor":0.5
			}
		},
		{
			"doubleSided":true,
			"name":"jaune",
			"pbrMetallicRoughness":{
				"baseColorFactor":[
					1,
					1,
					0,
					1
				],
				"metallicFactor":0,
				"roughnessFactor":0.5
			}
		}
	],
	"meshes":[
		{
			"name":"Cone.012",
			"primitives":[
				{
					"attributes":{
						"POSITION":0,
						"NORMAL":1,
						"TEXCOORD_0":2
					},
					"indices":3,
					"material":0
				}
			]
		},
		{
			"name":"Cone.016",
			"primitives":[
				{
					"attributes":{
						"POSITION":4,
						"NORMAL":5,
						"TEXCOORD_0":6
					},
					"indices":3,
					"material":0
				}
			]
		},
		{
			"name":"Cylinder.045",
			"primitives":[
				{
					"attributes":{
						"POSITION":7,
						"NORMAL":8,
						"TEXCOORD_0":9
					},
					"indices":10,
					"material":1
				}
			]
		},
		{
			"name":"Cylinder.058",
			"primitives":[
				{
					"attributes":{
						"POSITION":11,
						"NORMAL":12,
						"TEXCOORD_0":13
					},
					"indices":14,
					"material":1
				},
				{
					"attributes":{
						"POSITION":15,
						"NORMAL":16,
						"TEXCOORD_0":17
					},
					"indices":18,
					"material":2
				},
				{
					"attributes":{
						"POSITION":19,
						"NORMAL":20,
						"TEXCOORD_0":21
					},
					"indices":22,
					"material":0
				}
			]
		}
	],
	"accessors":[
		{
			"bufferView":0,
			"componentType":5126,
			"count":128,
			"max":[
				0.1999988555908203,
				4.301135540008545,
				0.20000000298023224
			],
			"min":[
				-0.20000076293945312,
				3.9011354446411133,
				-0.20000000298023224
			],
			"type":"VEC3"
		},
		{
			"bufferView":1,
			"componentType":5126,
			"count":128,
			"type":"VEC3"
		},
		{
			"bufferView":2,
			"componentType":5126,
			"count":128,
			"type":"VEC2"
		},
		{
			"bufferView":3,
			"componentType":5123,
			"count":186,
			"type":"SCALAR"
		},
		{
			"bufferView":4,
			"componentType":5126,
			"count":128,
			"max":[
				0.1999988555908203,
				4.626178741455078,
				0.20000000298023224
			],
			"min":[
				-0.20000076293945312,
				4.2261786460876465,
				-0.20000000298023224
			],
			"type":"VEC3"
		},
		{
			"bufferView":5,
			"componentType":5126,
			"count":128,
			"type":"VEC3"
		},
		{
			"bufferView":6,
			"componentType":5126,
			"count":128,
			"type":"VEC2"
		},
		{
			"bufferView":7,
			"componentType":5126,
			"count":192,
			"max":[
				0.029436111450195312,
				4.417652606964111,
				0.029436571523547173
			],
			"min":[
				-0.029436111450195312,
				3.4640181064605713,
				-0.029436571523547173
			],
			"type":"VEC3"
		},
		{
			"bufferView":8,
			"componentType":5126,
			"count":192,
			"type":"VEC3"
		},
		{
			"bufferView":9,
			"componentType":5126,
			"count":192,
			"type":"VEC2"
		},
		{
			"bufferView":10,
			"componentType":5123,
			"count":372,
			"type":"SCALAR"
		},
		{
			"bufferView":11,
			"componentType":5126,
			"count":98,
			"max":[
				0.19999980926513672,
				0.5,
				0.20000000298023224
			],
			"min":[
				-0.19999980926513672,
				-0.5,
				-0.20000000298023224
			],
			"type":"VEC3"
		},
		{
			"bufferView":12,
			"componentType":5126,
			"count":98,
			"type":"VEC3"
		},
		{
			"bufferView":13,
			"componentType":5126,
			"count":98,
			"type":"VEC2"
		},
		{
			"bufferView":14,
			"componentType":5123,
			"count":282,
			"type":"SCALAR"
		},
		{
			"bufferView":15,
			"componentType":5126,
			"count":99,
			"max":[
				0.19999980926513672,
				2,
				0.20000000298023224
			],
			"min":[
				-0.19999980926513672,
				0.5,
				-0.20000000298023224
			],
			"type":"VEC3"
		},
		{
			"bufferView":16,
			"componentType":5126,
			"count":99,
			"type":"VEC3"
		},
		{
			"bufferView":17,
			"componentType":5126,
			"count":99,
			"type":"VEC2"
		},
		{
			"bufferView":18,
			"componentType":5123,
			"count":384,
			"type":"SCALAR"
		},
		{
			"bufferView":19,
			"componentType":5126,
			"count":131,
			"max":[
				0.19999980926513672,
				3.5,
				0.20000000298023224
			],
			"min":[
				-0.19999980926513672,
				2,
				-0.20000000298023224
			],
			"type":"VEC3"
		},
		{
			"bufferView":20,
			"componentType":5126,
			"count":131,
			"type":"VEC3"
		},
		{
			"bufferView":21,
			"componentType":5126,
			"count":131,
			"type":"VEC2"
		},
		{
			"bufferView":22,
			"componentType":5123,
			"count":474,
			"type":"SCALAR"
		}
	],
	"bufferViews":[
		{
			"buffer":0,
			"byteLength":1536,
			"byteOffset":0,
			"target":34962
		},
		{
			"buffer":0,
			"byteLength":1536,
			"byteOffset":1536,
			"target":34962
		},
		{
			"buffer":0,
			"byteLength":1024,
			"byteOffset":3072,
			"target":34962
		},
		{
			"buffer":0,
			"byteLength":372,
			"byteOffset":4096,
			"target":34963
		},
		{
			"buffer":0,
			"byteLength":1536,
			"byteOffset":4468,
			"target":34962
		},
		{
			"buffer":0,
			"byteLength":1536,
			"byteOffset":6004,
			"target":34962
		},
		{
			"buffer":0,
			"byteLength":1024,
			"byteOffset":7540,
			"target":34962
		},
		{
			"buffer":0,
			"byteLength":2304,
			"byteOffset":8564,
			"target":34962
		},
		{
			"buffer":0,
			"byteLength":2304,
			"byteOffset":10868,
			"target":34962
		},
		{
			"buffer":0,
			"byteLength":1536,
			"byteOffset":13172,
			"target":34962
		},
		{
			"buffer":0,
			"byteLength":744,
			"byteOffset":14708,
			"target":34963
		},
		{
			"buffer":0,
			"byteLength":1176,
			"byteOffset":15452,
			"target":34962
		},
		{
			"buffer":0,
			"byteLength":1176,
			"byteOffset":16628,
			"target":34962
		},
		{
			"buffer":0,
			"byteLength":784,
			"byteOffset":17804,
			"target":34962
		},
		{
			"buffer":0,
			"byteLength":564,
			"byteOffset":18588,
			"target":34963
		},
		{
			"buffer":0,
			"byteLength":1188,
			"byteOffset":19152,
			"target":34962
		},
		{
			"buffer":0,
			"byteLength":1188,
			"byteOffset":20340,
			"target":34962
		},
		{
			"buffer":0,
			"byteLength":792,
			"byteOffset":21528,
			"target":34962
		},
		{
			"buffer":0,
			"byteLength":768,
			"byteOffset":22320,
			"target":34963
		},
		{
			"buffer":0,
			"byteLength":1572,
			"byteOffset":23088,
			"target":34962
		},
		{
			"buffer":0,
			"byteLength":1572,
			"byteOffset":24660,
			"target":34962
		},
		{
			"buffer":0,
			"byteLength":1048,
			"byteOffset":26232,
			"target":34962
		},
		{
			"buffer":0,
			"byteLength":948,
			"byteOffset":27280,
			"target":34963
		}
	],
	"buffers":[
		{
			"byteLength":28228,
			"uri":"Bcn-North.bin"
		}
	]
}
