{
	"asset":{
		"generator":"Khronos glTF Blender I/O v4.2.57",
		"version":"2.0"
	},
	"scene":0,
	"scenes":[
		{
			"name":"Scene",
			"nodes":[
				0,
				1,
				2,
				3
			]
		}
	],
	"nodes":[
		{
			"mesh":0,
			"name":"Cone 2.007"
		},
		{
			"mesh":1,
			"name":"Cone 1.007"
		},
		{
			"mesh":2,
			"name":"Axe.012"
		},
		{
			"mesh":3,
			"name":"Cylinder.032"
		}
	],
	"materials":[
		{
			"doubleSided":true,
			"name":"noir",
			"pbrMetallicRoughness":{
				"baseColorFactor":[
					0,
					0.005882382392883301,
					0,
					1
				],
				"metallicFactor":0,
				"roughnessFactor":0.5
			}
		},
		{
			"doubleSided":true,
			"name":"gris",
			"pbrMetallicRoughness":{
				"baseColorFactor":[
					0.5494534969329834,
					0.5494534969329834,
					0.5494534969329834,
					1
				],
				"metallicFactor":0,
				"roughnessFactor":0.5
			}
		},
		{
			"doubleSided":true,
			"name":"jaune",
			"pbrMetallicRoughness":{
				"baseColorFactor":[
					1,
					1,
					0,
					1
				],
				"metallicFactor":0,
				"roughnessFactor":0.5
			}
		}
	],
	"meshes":[
		{
			"name":"Cone.011",
			"primitives":[
				{
					"attributes":{
						"POSITION":0,
						"NORMAL":1,
						"TEXCOORD_0":2
					},
					"indices":3,
					"material":0
				}
			]
		},
		{
			"name":"Cone.015",
			"primitives":[
				{
					"attributes":{
						"POSITION":4,
						"NORMAL":5,
						"TEXCOORD_0":6
					},
					"indices":7,
					"material":0
				}
			]
		},
		{
			"name":"Cylinder.048",
			"primitives":[
				{
					"attributes":{
						"POSITION":8,
						"NORMAL":9,
						"TEXCOORD_0":10
					},
					"indices":11,
					"material":1
				}
			]
		},
		{
			"name":"Cylinder.057",
			"primitives":[
				{
					"attributes":{
						"POSITION":12,
						"NORMAL":13,
						"TEXCOORD_0":14
					},
					"indices":15,
					"material":1
				},
				{
					"attributes":{
						"POSITION":16,
						"NORMAL":17,
						"TEXCOORD_0":18
					},
					"indices":19,
					"material":0
				},
				{
					"attributes":{
						"POSITION":20,
						"NORMAL":21,
						"TEXCOORD_0":22
					},
					"indices":23,
					"material":2
				}
			]
		}
	],
	"accessors":[
		{
			"bufferView":0,
			"componentType":5126,
			"count":128,
			"max":[
				0.19999980926513672,
				4.200305938720703,
				0.20000000298023224
			],
			"min":[
				-0.19999980926513672,
				3.8003060817718506,
				-0.20000000298023224
			],
			"type":"VEC3"
		},
		{
			"bufferView":1,
			"componentType":5126,
			"count":128,
			"type":"VEC3"
		},
		{
			"bufferView":2,
			"componentType":5126,
			"count":128,
			"type":"VEC2"
		},
		{
			"bufferView":3,
			"componentType":5123,
			"count":186,
			"type":"SCALAR"
		},
		{
			"bufferView":4,
			"componentType":5126,
			"count":128,
			"max":[
				0.1999988555908203,
				4.624737739562988,
				0.20000000298023224
			],
			"min":[
				-0.20000076293945312,
				4.224737644195557,
				-0.20000000298023224
			],
			"type":"VEC3"
		},
		{
			"bufferView":5,
			"componentType":5126,
			"count":128,
			"type":"VEC3"
		},
		{
			"bufferView":6,
			"componentType":5126,
			"count":128,
			"type":"VEC2"
		},
		{
			"bufferView":7,
			"componentType":5123,
			"count":186,
			"type":"SCALAR"
		},
		{
			"bufferView":8,
			"componentType":5126,
			"count":192,
			"max":[
				0.029436111450195312,
				4.417652606964111,
				0.029436571523547173
			],
			"min":[
				-0.029436111450195312,
				3.4640181064605713,
				-0.029436571523547173
			],
			"type":"VEC3"
		},
		{
			"bufferView":9,
			"componentType":5126,
			"count":192,
			"type":"VEC3"
		},
		{
			"bufferView":10,
			"componentType":5126,
			"count":192,
			"type":"VEC2"
		},
		{
			"bufferView":11,
			"componentType":5123,
			"count":372,
			"type":"SCALAR"
		},
		{
			"bufferView":12,
			"componentType":5126,
			"count":98,
			"max":[
				0.19999980926513672,
				0.5,
				0.20000000298023224
			],
			"min":[
				-0.19999980926513672,
				-0.5,
				-0.20000000298023224
			],
			"type":"VEC3"
		},
		{
			"bufferView":13,
			"componentType":5126,
			"count":98,
			"type":"VEC3"
		},
		{
			"bufferView":14,
			"componentType":5126,
			"count":98,
			"type":"VEC2"
		},
		{
			"bufferView":15,
			"componentType":5123,
			"count":282,
			"type":"SCALAR"
		},
		{
			"bufferView":16,
			"componentType":5126,
			"count":164,
			"max":[
				0.19999980926513672,
				3.5,
				0.20000000298023224
			],
			"min":[
				-0.19999980926513672,
				0.5,
				-0.20000000298023224
			],
			"type":"VEC3"
		},
		{
			"bufferView":17,
			"componentType":5126,
			"count":164,
			"type":"VEC3"
		},
		{
			"bufferView":18,
			"componentType":5126,
			"count":164,
			"type":"VEC2"
		},
		{
			"bufferView":19,
			"componentType":5123,
			"count":474,
			"type":"SCALAR"
		},
		{
			"bufferView":20,
			"componentType":5126,
			"count":99,
			"max":[
				0.19999980926513672,
				2.5,
				0.20000000298023224
			],
			"min":[
				-0.19999980926513672,
				1.5,
				-0.20000000298023224
			],
			"type":"VEC3"
		},
		{
			"bufferView":21,
			"componentType":5126,
			"count":99,
			"type":"VEC3"
		},
		{
			"bufferView":22,
			"componentType":5126,
			"count":99,
			"type":"VEC2"
		},
		{
			"bufferView":23,
			"componentType":5123,
			"count":384,
			"type":"SCALAR"
		}
	],
	"bufferViews":[
		{
			"buffer":0,
			"byteLength":1536,
			"byteOffset":0,
			"target":34962
		},
		{
			"buffer":0,
			"byteLength":1536,
			"byteOffset":1536,
			"target":34962
		},
		{
			"buffer":0,
			"byteLength":1024,
			"byteOffset":3072,
			"target":34962
		},
		{
			"buffer":0,
			"byteLength":372,
			"byteOffset":4096,
			"target":34963
		},
		{
			"buffer":0,
			"byteLength":1536,
			"byteOffset":4468,
			"target":34962
		},
		{
			"buffer":0,
			"byteLength":1536,
			"byteOffset":6004,
			"target":34962
		},
		{
			"buffer":0,
			"byteLength":1024,
			"byteOffset":7540,
			"target":34962
		},
		{
			"buffer":0,
			"byteLength":372,
			"byteOffset":8564,
			"target":34963
		},
		{
			"buffer":0,
			"byteLength":2304,
			"byteOffset":8936,
			"target":34962
		},
		{
			"buffer":0,
			"byteLength":2304,
			"byteOffset":11240,
			"target":34962
		},
		{
			"buffer":0,
			"byteLength":1536,
			"byteOffset":13544,
			"target":34962
		},
		{
			"buffer":0,
			"byteLength":744,
			"byteOffset":15080,
			"target":34963
		},
		{
			"buffer":0,
			"byteLength":1176,
			"byteOffset":15824,
			"target":34962
		},
		{
			"buffer":0,
			"byteLength":1176,
			"byteOffset":17000,
			"target":34962
		},
		{
			"buffer":0,
			"byteLength":784,
			"byteOffset":18176,
			"target":34962
		},
		{
			"buffer":0,
			"byteLength":564,
			"byteOffset":18960,
			"target":34963
		},
		{
			"buffer":0,
			"byteLength":1968,
			"byteOffset":19524,
			"target":34962
		},
		{
			"buffer":0,
			"byteLength":1968,
			"byteOffset":21492,
			"target":34962
		},
		{
			"buffer":0,
			"byteLength":1312,
			"byteOffset":23460,
			"target":34962
		},
		{
			"buffer":0,
			"byteLength":948,
			"byteOffset":24772,
			"target":34963
		},
		{
			"buffer":0,
			"byteLength":1188,
			"byteOffset":25720,
			"target":34962
		},
		{
			"buffer":0,
			"byteLength":1188,
			"byteOffset":26908,
			"target":34962
		},
		{
			"buffer":0,
			"byteLength":792,
			"byteOffset":28096,
			"target":34962
		},
		{
			"buffer":0,
			"byteLength":768,
			"byteOffset":28888,
			"target":34963
		}
	],
	"buffers":[
		{
			"byteLength":29656,
			"uri":"Bcn-East.bin"
		}
	]
}
