{
	"asset":{
		"generator":"Khronos glTF Blender I/O v4.2.57",
		"version":"2.0"
	},
	"scene":0,
	"scenes":[
		{
			"name":"Scene",
			"nodes":[
				0,
				1,
				2,
				3
			]
		}
	],
	"nodes":[
		{
			"mesh":0,
			"name":"Sphere 2.001"
		},
		{
			"mesh":1,
			"name":"Sphere 1.001"
		},
		{
			"mesh":2,
			"name":"Axe.010"
		},
		{
			"mesh":3,
			"name":"Cylinder.029"
		}
	],
	"materials":[
		{
			"doubleSided":true,
			"name":"noir",
			"pbrMetallicRoughness":{
				"baseColorFactor":[
					0,
					0.005882382392883301,
					0,
					1
				],
				"metallicFactor":0,
				"roughnessFactor":0.5
			}
		},
		{
			"doubleSided":true,
			"name":"gris",
			"pbrMetallicRoughness":{
				"baseColorFactor":[
					0.5494534969329834,
					0.5494534969329834,
					0.5494534969329834,
					1
				],
				"metallicFactor":0,
				"roughnessFactor":0.5
			}
		},
		{
			"doubleSided":true,
			"name":"rouge",
			"pbrMetallicRoughness":{
				"baseColorFactor":[
					1,
					0,
					0,
					1
				],
				"metallicFactor":0,
				"roughnessFactor":0.5
			}
		}
	],
	"meshes":[
		{
			"name":"Sphere.002",
			"primitives":[
				{
					"attributes":{
						"POSITION":0,
						"NORMAL":1,
						"TEXCOORD_0":2
					},
					"indices":3,
					"material":0
				}
			]
		},
		{
			"name":"Sphere.003",
			"primitives":[
				{
					"attributes":{
						"POSITION":4,
						"NORMAL":5,
						"TEXCOORD_0":6
					},
					"indices":7,
					"material":0
				}
			]
		},
		{
			"name":"Cylinder.046",
			"primitives":[
				{
					"attributes":{
						"POSITION":8,
						"NORMAL":9,
						"TEXCOORD_0":10
					},
					"indices":11,
					"material":1
				}
			]
		},
		{
			"name":"Cylinder.054",
			"primitives":[
				{
					"attributes":{
						"POSITION":12,
						"NORMAL":13,
						"TEXCOORD_0":14
					},
					"indices":15,
					"material":1
				},
				{
					"attributes":{
						"POSITION":16,
						"NORMAL":17,
						"TEXCOORD_0":18
					},
					"indices":19,
					"material":0
				},
				{
					"attributes":{
						"POSITION":20,
						"NORMAL":21,
						"TEXCOORD_0":22
					},
					"indices":23,
					"material":2
				}
			]
		}
	],
	"accessors":[
		{
			"bufferView":0,
			"componentType":5126,
			"count":1984,
			"max":[
				0.2008380889892578,
				4.190890789031982,
				0.19999997317790985
			],
			"min":[
				-0.19916152954101562,
				3.790890693664551,
				-0.20000004768371582
			],
			"type":"VEC3"
		},
		{
			"bufferView":1,
			"componentType":5126,
			"count":1984,
			"type":"VEC3"
		},
		{
			"bufferView":2,
			"componentType":5126,
			"count":1984,
			"type":"VEC2"
		},
		{
			"bufferView":3,
			"componentType":5123,
			"count":2880,
			"type":"SCALAR"
		},
		{
			"bufferView":4,
			"componentType":5126,
			"count":1984,
			"max":[
				0.2008380889892578,
				4.593889236450195,
				0.19999997317790985
			],
			"min":[
				-0.19916152954101562,
				4.193889141082764,
				-0.20000004768371582
			],
			"type":"VEC3"
		},
		{
			"bufferView":5,
			"componentType":5126,
			"count":1984,
			"type":"VEC3"
		},
		{
			"bufferView":6,
			"componentType":5126,
			"count":1984,
			"type":"VEC2"
		},
		{
			"bufferView":7,
			"componentType":5123,
			"count":2880,
			"type":"SCALAR"
		},
		{
			"bufferView":8,
			"componentType":5126,
			"count":192,
			"max":[
				0.029436111450195312,
				4.417652606964111,
				0.029436571523547173
			],
			"min":[
				-0.029436111450195312,
				3.4640181064605713,
				-0.029436571523547173
			],
			"type":"VEC3"
		},
		{
			"bufferView":9,
			"componentType":5126,
			"count":192,
			"type":"VEC3"
		},
		{
			"bufferView":10,
			"componentType":5126,
			"count":192,
			"type":"VEC2"
		},
		{
			"bufferView":11,
			"componentType":5123,
			"count":372,
			"type":"SCALAR"
		},
		{
			"bufferView":12,
			"componentType":5126,
			"count":98,
			"max":[
				0.19999980926513672,
				0.5,
				0.20000000298023224
			],
			"min":[
				-0.19999980926513672,
				-0.5,
				-0.20000000298023224
			],
			"type":"VEC3"
		},
		{
			"bufferView":13,
			"componentType":5126,
			"count":98,
			"type":"VEC3"
		},
		{
			"bufferView":14,
			"componentType":5126,
			"count":98,
			"type":"VEC2"
		},
		{
			"bufferView":15,
			"componentType":5123,
			"count":282,
			"type":"SCALAR"
		},
		{
			"bufferView":16,
			"componentType":5126,
			"count":164,
			"max":[
				0.19999980926513672,
				3.5,
				0.20000000298023224
			],
			"min":[
				-0.19999980926513672,
				0.5,
				-0.20000000298023224
			],
			"type":"VEC3"
		},
		{
			"bufferView":17,
			"componentType":5126,
			"count":164,
			"type":"VEC3"
		},
		{
			"bufferView":18,
			"componentType":5126,
			"count":164,
			"type":"VEC2"
		},
		{
			"bufferView":19,
			"componentType":5123,
			"count":474,
			"type":"SCALAR"
		},
		{
			"bufferView":20,
			"componentType":5126,
			"count":99,
			"max":[
				0.19999980926513672,
				2.5,
				0.20000000298023224
			],
			"min":[
				-0.19999980926513672,
				1.5,
				-0.20000000298023224
			],
			"type":"VEC3"
		},
		{
			"bufferView":21,
			"componentType":5126,
			"count":99,
			"type":"VEC3"
		},
		{
			"bufferView":22,
			"componentType":5126,
			"count":99,
			"type":"VEC2"
		},
		{
			"bufferView":23,
			"componentType":5123,
			"count":384,
			"type":"SCALAR"
		}
	],
	"bufferViews":[
		{
			"buffer":0,
			"byteLength":23808,
			"byteOffset":0,
			"target":34962
		},
		{
			"buffer":0,
			"byteLength":23808,
			"byteOffset":23808,
			"target":34962
		},
		{
			"buffer":0,
			"byteLength":15872,
			"byteOffset":47616,
			"target":34962
		},
		{
			"buffer":0,
			"byteLength":5760,
			"byteOffset":63488,
			"target":34963
		},
		{
			"buffer":0,
			"byteLength":23808,
			"byteOffset":69248,
			"target":34962
		},
		{
			"buffer":0,
			"byteLength":23808,
			"byteOffset":93056,
			"target":34962
		},
		{
			"buffer":0,
			"byteLength":15872,
			"byteOffset":116864,
			"target":34962
		},
		{
			"buffer":0,
			"byteLength":5760,
			"byteOffset":132736,
			"target":34963
		},
		{
			"buffer":0,
			"byteLength":2304,
			"byteOffset":138496,
			"target":34962
		},
		{
			"buffer":0,
			"byteLength":2304,
			"byteOffset":140800,
			"target":34962
		},
		{
			"buffer":0,
			"byteLength":1536,
			"byteOffset":143104,
			"target":34962
		},
		{
			"buffer":0,
			"byteLength":744,
			"byteOffset":144640,
			"target":34963
		},
		{
			"buffer":0,
			"byteLength":1176,
			"byteOffset":145384,
			"target":34962
		},
		{
			"buffer":0,
			"byteLength":1176,
			"byteOffset":146560,
			"target":34962
		},
		{
			"buffer":0,
			"byteLength":784,
			"byteOffset":147736,
			"target":34962
		},
		{
			"buffer":0,
			"byteLength":564,
			"byteOffset":148520,
			"target":34963
		},
		{
			"buffer":0,
			"byteLength":1968,
			"byteOffset":149084,
			"target":34962
		},
		{
			"buffer":0,
			"byteLength":1968,
			"byteOffset":151052,
			"target":34962
		},
		{
			"buffer":0,
			"byteLength":1312,
			"byteOffset":153020,
			"target":34962
		},
		{
			"buffer":0,
			"byteLength":948,
			"byteOffset":154332,
			"target":34963
		},
		{
			"buffer":0,
			"byteLength":1188,
			"byteOffset":155280,
			"target":34962
		},
		{
			"buffer":0,
			"byteLength":1188,
			"byteOffset":156468,
			"target":34962
		},
		{
			"buffer":0,
			"byteLength":792,
			"byteOffset":157656,
			"target":34962
		},
		{
			"buffer":0,
			"byteLength":768,
			"byteOffset":158448,
			"target":34963
		}
	],
	"buffers":[
		{
			"byteLength":159216,
			"uri":"Bcn-Danger.bin"
		}
	]
}
