{
	"asset":{
		"generator":"Khronos glTF Blender I/O v4.2.57",
		"version":"2.0"
	},
	"scene":0,
	"scenes":[
		{
			"name":"Scene",
			"nodes":[
				0,
				1,
				2
			]
		}
	],
	"nodes":[
		{
			"mesh":0,
			"name":"Cylindre babord.001"
		},
		{
			"mesh":1,
			"name":"Axe.008"
		},
		{
			"mesh":2,
			"name":"Cylinder.034"
		}
	],
	"materials":[
		{
			"doubleSided":true,
			"name":"rouge",
			"pbrMetallicRoughness":{
				"baseColorFactor":[
					1,
					0,
					0,
					1
				],
				"metallicFactor":0,
				"roughnessFactor":0.5
			}
		},
		{
			"doubleSided":true,
			"name":"gris",
			"pbrMetallicRoughness":{
				"baseColorFactor":[
					0.5494534969329834,
					0.5494534969329834,
					0.5494534969329834,
					1
				],
				"metallicFactor":0,
				"roughnessFactor":0.5
			}
		}
	],
	"meshes":[
		{
			"name":"Cylinder.042",
			"primitives":[
				{
					"attributes":{
						"POSITION":0,
						"NORMAL":1,
						"TEXCOORD_0":2
					},
					"indices":3,
					"material":0
				}
			]
		},
		{
			"name":"Cylinder.044",
			"primitives":[
				{
					"attributes":{
						"POSITION":4,
						"NORMAL":5,
						"TEXCOORD_0":6
					},
					"indices":3,
					"material":1
				}
			]
		},
		{
			"name":"Cylinder.059",
			"primitives":[
				{
					"attributes":{
						"POSITION":7,
						"NORMAL":8,
						"TEXCOORD_0":9
					},
					"indices":10,
					"material":1
				},
				{
					"attributes":{
						"POSITION":11,
						"NORMAL":12,
						"TEXCOORD_0":13
					},
					"indices":14,
					"material":0
				}
			]
		}
	],
	"accessors":[
		{
			"bufferView":0,
			"componentType":5126,
			"count":192,
			"max":[
				0.22558021545410156,
				4.530329704284668,
				0.22558008134365082
			],
			"min":[
				-0.22558021545410156,
				4.024329662322998,
				-0.22558008134365082
			],
			"type":"VEC3"
		},
		{
			"bufferView":1,
			"componentType":5126,
			"count":192,
			"type":"VEC3"
		},
		{
			"bufferView":2,
			"componentType":5126,
			"count":192,
			"type":"VEC2"
		},
		{
			"bufferView":3,
			"componentType":5123,
			"count":372,
			"type":"SCALAR"
		},
		{
			"bufferView":4,
			"componentType":5126,
			"count":192,
			"max":[
				0.029436111450195312,
				4.417652606964111,
				0.029436571523547173
			],
			"min":[
				-0.029436111450195312,
				3.4640181064605713,
				-0.029436571523547173
			],
			"type":"VEC3"
		},
		{
			"bufferView":5,
			"componentType":5126,
			"count":192,
			"type":"VEC3"
		},
		{
			"bufferView":6,
			"componentType":5126,
			"count":192,
			"type":"VEC2"
		},
		{
			"bufferView":7,
			"componentType":5126,
			"count":98,
			"max":[
				0.20000076293945312,
				0.5,
				0.20000000298023224
			],
			"min":[
				-0.19999980926513672,
				-0.5,
				-0.20000000298023224
			],
			"type":"VEC3"
		},
		{
			"bufferView":8,
			"componentType":5126,
			"count":98,
			"type":"VEC3"
		},
		{
			"bufferView":9,
			"componentType":5126,
			"count":98,
			"type":"VEC2"
		},
		{
			"bufferView":10,
			"componentType":5123,
			"count":282,
			"type":"SCALAR"
		},
		{
			"bufferView":11,
			"componentType":5126,
			"count":197,
			"max":[
				0.20000076293945312,
				3.5,
				0.20000000298023224
			],
			"min":[
				-0.19999980926513672,
				0.5,
				-0.20000000298023224
			],
			"type":"VEC3"
		},
		{
			"bufferView":12,
			"componentType":5126,
			"count":197,
			"type":"VEC3"
		},
		{
			"bufferView":13,
			"componentType":5126,
			"count":197,
			"type":"VEC2"
		},
		{
			"bufferView":14,
			"componentType":5123,
			"count":858,
			"type":"SCALAR"
		}
	],
	"bufferViews":[
		{
			"buffer":0,
			"byteLength":2304,
			"byteOffset":0,
			"target":34962
		},
		{
			"buffer":0,
			"byteLength":2304,
			"byteOffset":2304,
			"target":34962
		},
		{
			"buffer":0,
			"byteLength":1536,
			"byteOffset":4608,
			"target":34962
		},
		{
			"buffer":0,
			"byteLength":744,
			"byteOffset":6144,
			"target":34963
		},
		{
			"buffer":0,
			"byteLength":2304,
			"byteOffset":6888,
			"target":34962
		},
		{
			"buffer":0,
			"byteLength":2304,
			"byteOffset":9192,
			"target":34962
		},
		{
			"buffer":0,
			"byteLength":1536,
			"byteOffset":11496,
			"target":34962
		},
		{
			"buffer":0,
			"byteLength":1176,
			"byteOffset":13032,
			"target":34962
		},
		{
			"buffer":0,
			"byteLength":1176,
			"byteOffset":14208,
			"target":34962
		},
		{
			"buffer":0,
			"byteLength":784,
			"byteOffset":15384,
			"target":34962
		},
		{
			"buffer":0,
			"byteLength":564,
			"byteOffset":16168,
			"target":34963
		},
		{
			"buffer":0,
			"byteLength":2364,
			"byteOffset":16732,
			"target":34962
		},
		{
			"buffer":0,
			"byteLength":2364,
			"byteOffset":19096,
			"target":34962
		},
		{
			"buffer":0,
			"byteLength":1576,
			"byteOffset":21460,
			"target":34962
		},
		{
			"buffer":0,
			"byteLength":1716,
			"byteOffset":23036,
			"target":34963
		}
	],
	"buffers":[
		{
			"byteLength":24752,
			"uri":"Bcn-Portside.bin"
		}
	]
}
