{
	"asset":{
		"generator":"Khronos glTF Blender I/O v4.2.57",
		"version":"2.0"
	},
	"scene":0,
	"scenes":[
		{
			"name":"Scene",
			"nodes":[
				0,
				1,
				2,
				3,
				4,
				5,
				6,
				7
			]
		}
	],
	"nodes":[
		{
			"mesh":0,
			"name":"Cylindre babord"
		},
		{
			"mesh":1,
			"name":"Plane.010"
		},
		{
			"mesh":2,
			"name":"Plane.011"
		},
		{
			"mesh":3,
			"name":"Cylinder.020"
		},
		{
			"mesh":4,
			"name":"Cylinder.021"
		},
		{
			"mesh":5,
			"name":"Cylinder.022"
		},
		{
			"mesh":6,
			"name":"Cylinder.023"
		},
		{
			"mesh":7,
			"name":"Axe.005"
		}
	],
	"materials":[
		{
			"doubleSided":true,
			"name":"rouge",
			"pbrMetallicRoughness":{
				"baseColorFactor":[
					1,
					0,
					0,
					1
				],
				"metallicFactor":0,
				"roughnessFactor":0.5
			}
		},
		{
			"doubleSided":true,
			"name":"solar panel",
			"pbrMetallicRoughness":{
				"baseColorTexture":{
					"index":0
				},
				"metallicFactor":0,
				"roughnessFactor":0.07253912836313248
			}
		},
		{
			"doubleSided":true,
			"name":"noir",
			"pbrMetallicRoughness":{
				"baseColorFactor":[
					0,
					0.005882382392883301,
					0,
					1
				],
				"metallicFactor":0,
				"roughnessFactor":0.5
			}
		},
		{
			"doubleSided":true,
			"name":"gris",
			"pbrMetallicRoughness":{
				"baseColorFactor":[
					0.5494534969329834,
					0.5494534969329834,
					0.5494534969329834,
					1
				],
				"metallicFactor":0,
				"roughnessFactor":0.5
			}
		}
	],
	"meshes":[
		{
			"name":"Cylinder.002",
			"primitives":[
				{
					"attributes":{
						"POSITION":0,
						"NORMAL":1,
						"TEXCOORD_0":2
					},
					"indices":3,
					"material":0
				}
			]
		},
		{
			"name":"Plane.010",
			"primitives":[
				{
					"attributes":{
						"POSITION":4,
						"NORMAL":5,
						"TEXCOORD_0":6
					},
					"indices":7,
					"material":1
				}
			]
		},
		{
			"name":"Plane.011",
			"primitives":[
				{
					"attributes":{
						"POSITION":8,
						"NORMAL":9,
						"TEXCOORD_0":10
					},
					"indices":11,
					"material":1
				}
			]
		},
		{
			"name":"Cylinder.026",
			"primitives":[
				{
					"attributes":{
						"POSITION":12,
						"NORMAL":13,
						"TEXCOORD_0":14
					},
					"indices":15,
					"material":0
				}
			]
		},
		{
			"name":"Cylinder.027",
			"primitives":[
				{
					"attributes":{
						"POSITION":16,
						"NORMAL":17,
						"TEXCOORD_0":18
					},
					"indices":19,
					"material":2
				}
			]
		},
		{
			"name":"Cylinder.028",
			"primitives":[
				{
					"attributes":{
						"POSITION":20,
						"NORMAL":21,
						"TEXCOORD_0":22
					},
					"indices":23,
					"material":3
				}
			]
		},
		{
			"name":"Cylinder.029",
			"primitives":[
				{
					"attributes":{
						"POSITION":24,
						"NORMAL":25,
						"TEXCOORD_0":26
					},
					"indices":27,
					"material":0
				}
			]
		},
		{
			"name":"Cylinder.030",
			"primitives":[
				{
					"attributes":{
						"POSITION":28,
						"NORMAL":29,
						"TEXCOORD_0":30
					},
					"indices":3,
					"material":3
				}
			]
		}
	],
	"textures":[
		{
			"sampler":0,
			"source":0
		}
	],
	"images":[
		{
			"mimeType":"image/png",
			"name":"panneau-solaire",
			"uri":"panneau-solaire.png"
		}
	],
	"accessors":[
		{
			"bufferView":0,
			"componentType":5126,
			"count":192,
			"max":[
				0.22557997703552246,
				4.030329704284668,
				0.22558008134365082
			],
			"min":[
				-0.22557973861694336,
				3.524329662322998,
				-0.22558008134365082
			],
			"type":"VEC3"
		},
		{
			"bufferView":1,
			"componentType":5126,
			"count":192,
			"type":"VEC3"
		},
		{
			"bufferView":2,
			"componentType":5126,
			"count":192,
			"type":"VEC2"
		},
		{
			"bufferView":3,
			"componentType":5123,
			"count":372,
			"type":"SCALAR"
		},
		{
			"bufferView":4,
			"componentType":5126,
			"count":4,
			"max":[
				-0.4405231475830078,
				3.0948925018310547,
				0.19074490666389465
			],
			"min":[
				-0.4405231475830078,
				2.454033851623535,
				-0.19074490666389465
			],
			"type":"VEC3"
		},
		{
			"bufferView":5,
			"componentType":5126,
			"count":4,
			"type":"VEC3"
		},
		{
			"bufferView":6,
			"componentType":5126,
			"count":4,
			"type":"VEC2"
		},
		{
			"bufferView":7,
			"componentType":5123,
			"count":6,
			"type":"SCALAR"
		},
		{
			"bufferView":8,
			"componentType":5126,
			"count":89,
			"max":[
				0.44350147247314453,
				3.0948925018310547,
				0.19074490666389465
			],
			"min":[
				0.44350147247314453,
				2.454033851623535,
				-0.19074490666389465
			],
			"type":"VEC3"
		},
		{
			"bufferView":9,
			"componentType":5126,
			"count":89,
			"type":"VEC3"
		},
		{
			"bufferView":10,
			"componentType":5126,
			"count":89,
			"type":"VEC2"
		},
		{
			"bufferView":11,
			"componentType":5123,
			"count":480,
			"type":"SCALAR"
		},
		{
			"bufferView":12,
			"componentType":5126,
			"count":48,
			"max":[
				0.5286211967468262,
				1.2630422115325928,
				0.6103991270065308
			],
			"min":[
				-0.5286211967468262,
				1.2130422592163086,
				-0.6103991270065308
			],
			"type":"VEC3"
		},
		{
			"bufferView":13,
			"componentType":5126,
			"count":48,
			"type":"VEC3"
		},
		{
			"bufferView":14,
			"componentType":5126,
			"count":48,
			"type":"VEC2"
		},
		{
			"bufferView":15,
			"componentType":5123,
			"count":108,
			"type":"SCALAR"
		},
		{
			"bufferView":16,
			"componentType":5126,
			"count":36,
			"max":[
				0.5218710899353027,
				0.614372968673706,
				0.6026046276092529
			],
			"min":[
				-0.5218710899353027,
				0.49976682662963867,
				-0.6026046276092529
			],
			"type":"VEC3"
		},
		{
			"bufferView":17,
			"componentType":5126,
			"count":36,
			"type":"VEC3"
		},
		{
			"bufferView":18,
			"componentType":5126,
			"count":36,
			"type":"VEC2"
		},
		{
			"bufferView":19,
			"componentType":5123,
			"count":60,
			"type":"SCALAR"
		},
		{
			"bufferView":20,
			"componentType":5126,
			"count":130,
			"max":[
				0.9000000953674316,
				0.5,
				0.8999999761581421
			],
			"min":[
				-0.9000000953674316,
				-0.5,
				-0.8999999761581421
			],
			"type":"VEC3"
		},
		{
			"bufferView":21,
			"componentType":5126,
			"count":130,
			"type":"VEC3"
		},
		{
			"bufferView":22,
			"componentType":5126,
			"count":130,
			"type":"VEC2"
		},
		{
			"bufferView":23,
			"componentType":5123,
			"count":372,
			"type":"SCALAR"
		},
		{
			"bufferView":24,
			"componentType":5126,
			"count":312,
			"max":[
				0.4330124855041504,
				3.1125335693359375,
				0.5
			],
			"min":[
				-0.4330124855041504,
				0.612533688545227,
				-0.5
			],
			"type":"VEC3"
		},
		{
			"bufferView":25,
			"componentType":5126,
			"count":312,
			"type":"VEC3"
		},
		{
			"bufferView":26,
			"componentType":5126,
			"count":312,
			"type":"VEC2"
		},
		{
			"bufferView":27,
			"componentType":5123,
			"count":1200,
			"type":"SCALAR"
		},
		{
			"bufferView":28,
			"componentType":5126,
			"count":192,
			"max":[
				0.029436588287353516,
				3.9176526069641113,
				0.029436571523547173
			],
			"min":[
				-0.029436588287353516,
				2.9640181064605713,
				-0.029436571523547173
			],
			"type":"VEC3"
		},
		{
			"bufferView":29,
			"componentType":5126,
			"count":192,
			"type":"VEC3"
		},
		{
			"bufferView":30,
			"componentType":5126,
			"count":192,
			"type":"VEC2"
		}
	],
	"bufferViews":[
		{
			"buffer":0,
			"byteLength":2304,
			"byteOffset":0,
			"target":34962
		},
		{
			"buffer":0,
			"byteLength":2304,
			"byteOffset":2304,
			"target":34962
		},
		{
			"buffer":0,
			"byteLength":1536,
			"byteOffset":4608,
			"target":34962
		},
		{
			"buffer":0,
			"byteLength":744,
			"byteOffset":6144,
			"target":34963
		},
		{
			"buffer":0,
			"byteLength":48,
			"byteOffset":6888,
			"target":34962
		},
		{
			"buffer":0,
			"byteLength":48,
			"byteOffset":6936,
			"target":34962
		},
		{
			"buffer":0,
			"byteLength":32,
			"byteOffset":6984,
			"target":34962
		},
		{
			"buffer":0,
			"byteLength":12,
			"byteOffset":7016,
			"target":34963
		},
		{
			"buffer":0,
			"byteLength":1068,
			"byteOffset":7028,
			"target":34962
		},
		{
			"buffer":0,
			"byteLength":1068,
			"byteOffset":8096,
			"target":34962
		},
		{
			"buffer":0,
			"byteLength":712,
			"byteOffset":9164,
			"target":34962
		},
		{
			"buffer":0,
			"byteLength":960,
			"byteOffset":9876,
			"target":34963
		},
		{
			"buffer":0,
			"byteLength":576,
			"byteOffset":10836,
			"target":34962
		},
		{
			"buffer":0,
			"byteLength":576,
			"byteOffset":11412,
			"target":34962
		},
		{
			"buffer":0,
			"byteLength":384,
			"byteOffset":11988,
			"target":34962
		},
		{
			"buffer":0,
			"byteLength":216,
			"byteOffset":12372,
			"target":34963
		},
		{
			"buffer":0,
			"byteLength":432,
			"byteOffset":12588,
			"target":34962
		},
		{
			"buffer":0,
			"byteLength":432,
			"byteOffset":13020,
			"target":34962
		},
		{
			"buffer":0,
			"byteLength":288,
			"byteOffset":13452,
			"target":34962
		},
		{
			"buffer":0,
			"byteLength":120,
			"byteOffset":13740,
			"target":34963
		},
		{
			"buffer":0,
			"byteLength":1560,
			"byteOffset":13860,
			"target":34962
		},
		{
			"buffer":0,
			"byteLength":1560,
			"byteOffset":15420,
			"target":34962
		},
		{
			"buffer":0,
			"byteLength":1040,
			"byteOffset":16980,
			"target":34962
		},
		{
			"buffer":0,
			"byteLength":744,
			"byteOffset":18020,
			"target":34963
		},
		{
			"buffer":0,
			"byteLength":3744,
			"byteOffset":18764,
			"target":34962
		},
		{
			"buffer":0,
			"byteLength":3744,
			"byteOffset":22508,
			"target":34962
		},
		{
			"buffer":0,
			"byteLength":2496,
			"byteOffset":26252,
			"target":34962
		},
		{
			"buffer":0,
			"byteLength":2400,
			"byteOffset":28748,
			"target":34963
		},
		{
			"buffer":0,
			"byteLength":2304,
			"byteOffset":31148,
			"target":34962
		},
		{
			"buffer":0,
			"byteLength":2304,
			"byteOffset":33452,
			"target":34962
		},
		{
			"buffer":0,
			"byteLength":1536,
			"byteOffset":35756,
			"target":34962
		}
	],
	"samplers":[
		{
			"magFilter":9729,
			"minFilter":9987
		}
	],
	"buffers":[
		{
			"byteLength":37292,
			"uri":"Boy-Portside.bin"
		}
	]
}
