{
	"asset":{
		"generator":"Khronos glTF Blender I/O v4.2.57",
		"version":"2.0"
	},
	"scene":0,
	"scenes":[
		{
			"name":"Scene",
			"nodes":[
				0,
				1,
				2,
				3,
				4,
				5,
				6,
				7,
				8
			]
		}
	],
	"nodes":[
		{
			"mesh":0,
			"name":"Axe"
		},
		{
			"mesh":1,
			"name":"Cylinder.001"
		},
		{
			"mesh":2,
			"name":"Cylinder"
		},
		{
			"mesh":3,
			"name":"Cylinder.002"
		},
		{
			"mesh":4,
			"name":"Plane"
		},
		{
			"mesh":5,
			"name":"Plane.001"
		},
		{
			"mesh":6,
			"name":"Cylinder.003"
		},
		{
			"mesh":7,
			"name":"Cone 2.001"
		},
		{
			"mesh":8,
			"name":"Cone 2.002"
		}
	],
	"materials":[
		{
			"doubleSided":true,
			"name":"gris",
			"pbrMetallicRoughness":{
				"baseColorFactor":[
					0.5494534969329834,
					0.5494534969329834,
					0.5494534969329834,
					1
				],
				"metallicFactor":0,
				"roughnessFactor":0.5
			}
		},
		{
			"doubleSided":true,
			"name":"noir",
			"pbrMetallicRoughness":{
				"baseColorFactor":[
					0,
					0.005882382392883301,
					0,
					1
				],
				"metallicFactor":0,
				"roughnessFactor":0.5
			}
		},
		{
			"doubleSided":true,
			"name":"jaune",
			"pbrMetallicRoughness":{
				"baseColorFactor":[
					1,
					1,
					0,
					1
				],
				"metallicFactor":0,
				"roughnessFactor":0.5
			}
		},
		{
			"doubleSided":true,
			"name":"solar panel",
			"pbrMetallicRoughness":{
				"baseColorTexture":{
					"index":0
				},
				"metallicFactor":0,
				"roughnessFactor":0.07253912836313248
			}
		}
	],
	"meshes":[
		{
			"name":"Cylinder.001",
			"primitives":[
				{
					"attributes":{
						"POSITION":0,
						"NORMAL":1,
						"TEXCOORD_0":2
					},
					"indices":3,
					"material":0
				}
			]
		},
		{
			"name":"Cylinder.004",
			"primitives":[
				{
					"attributes":{
						"POSITION":4,
						"NORMAL":5,
						"TEXCOORD_0":6
					},
					"indices":7,
					"material":0
				}
			]
		},
		{
			"name":"Cylinder.005",
			"primitives":[
				{
					"attributes":{
						"POSITION":8,
						"NORMAL":9,
						"TEXCOORD_0":10
					},
					"indices":11,
					"material":1
				},
				{
					"attributes":{
						"POSITION":12,
						"NORMAL":13,
						"TEXCOORD_0":14
					},
					"indices":15,
					"material":2
				}
			]
		},
		{
			"name":"Cylinder.006",
			"primitives":[
				{
					"attributes":{
						"POSITION":16,
						"NORMAL":17,
						"TEXCOORD_0":18
					},
					"indices":19,
					"material":1
				}
			]
		},
		{
			"name":"Plane",
			"primitives":[
				{
					"attributes":{
						"POSITION":20,
						"NORMAL":21,
						"TEXCOORD_0":22
					},
					"indices":23,
					"material":3
				}
			]
		},
		{
			"name":"Plane.001",
			"primitives":[
				{
					"attributes":{
						"POSITION":24,
						"NORMAL":25,
						"TEXCOORD_0":26
					},
					"indices":23,
					"material":3
				}
			]
		},
		{
			"name":"Cylinder",
			"primitives":[
				{
					"attributes":{
						"POSITION":27,
						"NORMAL":28,
						"TEXCOORD_0":29
					},
					"indices":30,
					"material":1
				}
			]
		},
		{
			"name":"Cone.004",
			"primitives":[
				{
					"attributes":{
						"POSITION":31,
						"NORMAL":32,
						"TEXCOORD_0":33
					},
					"indices":34,
					"material":1
				}
			]
		},
		{
			"name":"Cone.018",
			"primitives":[
				{
					"attributes":{
						"POSITION":35,
						"NORMAL":36,
						"TEXCOORD_0":37
					},
					"indices":34,
					"material":1
				}
			]
		}
	],
	"textures":[
		{
			"sampler":0,
			"source":0
		}
	],
	"images":[
		{
			"mimeType":"image/png",
			"name":"panneau-solaire",
			"uri":"panneau-solaire.png"
		}
	],
	"accessors":[
		{
			"bufferView":0,
			"componentType":5126,
			"count":192,
			"max":[
				0.029436111450195312,
				3.9176526069641113,
				0.029436571523547173
			],
			"min":[
				-0.029436111450195312,
				2.9640181064605713,
				-0.029436571523547173
			],
			"type":"VEC3"
		},
		{
			"bufferView":1,
			"componentType":5126,
			"count":192,
			"type":"VEC3"
		},
		{
			"bufferView":2,
			"componentType":5126,
			"count":192,
			"type":"VEC2"
		},
		{
			"bufferView":3,
			"componentType":5123,
			"count":372,
			"type":"SCALAR"
		},
		{
			"bufferView":4,
			"componentType":5126,
			"count":130,
			"max":[
				0.8999996185302734,
				0.5,
				0.8999999761581421
			],
			"min":[
				-0.8999996185302734,
				-0.5,
				-0.8999999761581421
			],
			"type":"VEC3"
		},
		{
			"bufferView":5,
			"componentType":5126,
			"count":130,
			"type":"VEC3"
		},
		{
			"bufferView":6,
			"componentType":5126,
			"count":130,
			"type":"VEC2"
		},
		{
			"bufferView":7,
			"componentType":5123,
			"count":372,
			"type":"SCALAR"
		},
		{
			"bufferView":8,
			"componentType":5126,
			"count":162,
			"max":[
				0.4330129623413086,
				1.862533688545227,
				0.5
			],
			"min":[
				-0.4330129623413086,
				0.612533688545227,
				-0.5
			],
			"type":"VEC3"
		},
		{
			"bufferView":9,
			"componentType":5126,
			"count":162,
			"type":"VEC3"
		},
		{
			"bufferView":10,
			"componentType":5126,
			"count":162,
			"type":"VEC2"
		},
		{
			"bufferView":11,
			"componentType":5123,
			"count":588,
			"type":"SCALAR"
		},
		{
			"bufferView":12,
			"componentType":5126,
			"count":162,
			"max":[
				0.4330129623413086,
				3.1125335693359375,
				0.5
			],
			"min":[
				-0.4330129623413086,
				1.862533688545227,
				-0.5
			],
			"type":"VEC3"
		},
		{
			"bufferView":13,
			"componentType":5126,
			"count":162,
			"type":"VEC3"
		},
		{
			"bufferView":14,
			"componentType":5126,
			"count":162,
			"type":"VEC2"
		},
		{
			"bufferView":15,
			"componentType":5123,
			"count":612,
			"type":"SCALAR"
		},
		{
			"bufferView":16,
			"componentType":5126,
			"count":36,
			"max":[
				0.5218706130981445,
				0.614372968673706,
				0.6026046276092529
			],
			"min":[
				-0.5218706130981445,
				0.49976682662963867,
				-0.6026046276092529
			],
			"type":"VEC3"
		},
		{
			"bufferView":17,
			"componentType":5126,
			"count":36,
			"type":"VEC3"
		},
		{
			"bufferView":18,
			"componentType":5126,
			"count":36,
			"type":"VEC2"
		},
		{
			"bufferView":19,
			"componentType":5123,
			"count":60,
			"type":"SCALAR"
		},
		{
			"bufferView":20,
			"componentType":5126,
			"count":4,
			"max":[
				0.44350147247314453,
				3.0948925018310547,
				0.19074490666389465
			],
			"min":[
				0.44350147247314453,
				2.454033851623535,
				-0.19074490666389465
			],
			"type":"VEC3"
		},
		{
			"bufferView":21,
			"componentType":5126,
			"count":4,
			"type":"VEC3"
		},
		{
			"bufferView":22,
			"componentType":5126,
			"count":4,
			"type":"VEC2"
		},
		{
			"bufferView":23,
			"componentType":5123,
			"count":6,
			"type":"SCALAR"
		},
		{
			"bufferView":24,
			"componentType":5126,
			"count":4,
			"max":[
				-0.4405231475830078,
				3.0948925018310547,
				0.19074490666389465
			],
			"min":[
				-0.4405231475830078,
				2.454033851623535,
				-0.19074490666389465
			],
			"type":"VEC3"
		},
		{
			"bufferView":25,
			"componentType":5126,
			"count":4,
			"type":"VEC3"
		},
		{
			"bufferView":26,
			"componentType":5126,
			"count":4,
			"type":"VEC2"
		},
		{
			"bufferView":27,
			"componentType":5126,
			"count":48,
			"max":[
				0.528620719909668,
				1.2630422115325928,
				0.6103991270065308
			],
			"min":[
				-0.528620719909668,
				1.2130422592163086,
				-0.6103991270065308
			],
			"type":"VEC3"
		},
		{
			"bufferView":28,
			"componentType":5126,
			"count":48,
			"type":"VEC3"
		},
		{
			"bufferView":29,
			"componentType":5126,
			"count":48,
			"type":"VEC2"
		},
		{
			"bufferView":30,
			"componentType":5123,
			"count":108,
			"type":"SCALAR"
		},
		{
			"bufferView":31,
			"componentType":5126,
			"count":128,
			"max":[
				0.19999980926513672,
				4.0723114013671875,
				0.20000000298023224
			],
			"min":[
				-0.19999980926513672,
				3.672311544418335,
				-0.20000000298023224
			],
			"type":"VEC3"
		},
		{
			"bufferView":32,
			"componentType":5126,
			"count":128,
			"type":"VEC3"
		},
		{
			"bufferView":33,
			"componentType":5126,
			"count":128,
			"type":"VEC2"
		},
		{
			"bufferView":34,
			"componentType":5123,
			"count":186,
			"type":"SCALAR"
		},
		{
			"bufferView":35,
			"componentType":5126,
			"count":128,
			"max":[
				0.19999980926513672,
				3.7425355911254883,
				0.20000000298023224
			],
			"min":[
				-0.19999980926513672,
				3.342535972595215,
				-0.20000000298023224
			],
			"type":"VEC3"
		},
		{
			"bufferView":36,
			"componentType":5126,
			"count":128,
			"type":"VEC3"
		},
		{
			"bufferView":37,
			"componentType":5126,
			"count":128,
			"type":"VEC2"
		}
	],
	"bufferViews":[
		{
			"buffer":0,
			"byteLength":2304,
			"byteOffset":0,
			"target":34962
		},
		{
			"buffer":0,
			"byteLength":2304,
			"byteOffset":2304,
			"target":34962
		},
		{
			"buffer":0,
			"byteLength":1536,
			"byteOffset":4608,
			"target":34962
		},
		{
			"buffer":0,
			"byteLength":744,
			"byteOffset":6144,
			"target":34963
		},
		{
			"buffer":0,
			"byteLength":1560,
			"byteOffset":6888,
			"target":34962
		},
		{
			"buffer":0,
			"byteLength":1560,
			"byteOffset":8448,
			"target":34962
		},
		{
			"buffer":0,
			"byteLength":1040,
			"byteOffset":10008,
			"target":34962
		},
		{
			"buffer":0,
			"byteLength":744,
			"byteOffset":11048,
			"target":34963
		},
		{
			"buffer":0,
			"byteLength":1944,
			"byteOffset":11792,
			"target":34962
		},
		{
			"buffer":0,
			"byteLength":1944,
			"byteOffset":13736,
			"target":34962
		},
		{
			"buffer":0,
			"byteLength":1296,
			"byteOffset":15680,
			"target":34962
		},
		{
			"buffer":0,
			"byteLength":1176,
			"byteOffset":16976,
			"target":34963
		},
		{
			"buffer":0,
			"byteLength":1944,
			"byteOffset":18152,
			"target":34962
		},
		{
			"buffer":0,
			"byteLength":1944,
			"byteOffset":20096,
			"target":34962
		},
		{
			"buffer":0,
			"byteLength":1296,
			"byteOffset":22040,
			"target":34962
		},
		{
			"buffer":0,
			"byteLength":1224,
			"byteOffset":23336,
			"target":34963
		},
		{
			"buffer":0,
			"byteLength":432,
			"byteOffset":24560,
			"target":34962
		},
		{
			"buffer":0,
			"byteLength":432,
			"byteOffset":24992,
			"target":34962
		},
		{
			"buffer":0,
			"byteLength":288,
			"byteOffset":25424,
			"target":34962
		},
		{
			"buffer":0,
			"byteLength":120,
			"byteOffset":25712,
			"target":34963
		},
		{
			"buffer":0,
			"byteLength":48,
			"byteOffset":25832,
			"target":34962
		},
		{
			"buffer":0,
			"byteLength":48,
			"byteOffset":25880,
			"target":34962
		},
		{
			"buffer":0,
			"byteLength":32,
			"byteOffset":25928,
			"target":34962
		},
		{
			"buffer":0,
			"byteLength":12,
			"byteOffset":25960,
			"target":34963
		},
		{
			"buffer":0,
			"byteLength":48,
			"byteOffset":25972,
			"target":34962
		},
		{
			"buffer":0,
			"byteLength":48,
			"byteOffset":26020,
			"target":34962
		},
		{
			"buffer":0,
			"byteLength":32,
			"byteOffset":26068,
			"target":34962
		},
		{
			"buffer":0,
			"byteLength":576,
			"byteOffset":26100,
			"target":34962
		},
		{
			"buffer":0,
			"byteLength":576,
			"byteOffset":26676,
			"target":34962
		},
		{
			"buffer":0,
			"byteLength":384,
			"byteOffset":27252,
			"target":34962
		},
		{
			"buffer":0,
			"byteLength":216,
			"byteOffset":27636,
			"target":34963
		},
		{
			"buffer":0,
			"byteLength":1536,
			"byteOffset":27852,
			"target":34962
		},
		{
			"buffer":0,
			"byteLength":1536,
			"byteOffset":29388,
			"target":34962
		},
		{
			"buffer":0,
			"byteLength":1024,
			"byteOffset":30924,
			"target":34962
		},
		{
			"buffer":0,
			"byteLength":372,
			"byteOffset":31948,
			"target":34963
		},
		{
			"buffer":0,
			"byteLength":1536,
			"byteOffset":32320,
			"target":34962
		},
		{
			"buffer":0,
			"byteLength":1536,
			"byteOffset":33856,
			"target":34962
		},
		{
			"buffer":0,
			"byteLength":1024,
			"byteOffset":35392,
			"target":34962
		}
	],
	"samplers":[
		{
			"magFilter":9729,
			"minFilter":9987
		}
	],
	"buffers":[
		{
			"byteLength":36416,
			"uri":"Boy-South.bin"
		}
	]
}
