{
	"asset":{
		"generator":"Khronos glTF Blender I/O v4.2.57",
		"version":"2.0"
	},
	"scene":0,
	"scenes":[
		{
			"name":"Scene",
			"nodes":[
				0,
				1,
				2,
				3,
				4,
				5,
				6,
				7
			]
		}
	],
	"nodes":[
		{
			"mesh":0,
			"name":"Cone"
		},
		{
			"mesh":1,
			"name":"Plane.012"
		},
		{
			"mesh":2,
			"name":"Plane.013"
		},
		{
			"mesh":3,
			"name":"Cylinder.024"
		},
		{
			"mesh":4,
			"name":"Cylinder.025"
		},
		{
			"mesh":5,
			"name":"Cylinder.026"
		},
		{
			"mesh":6,
			"name":"Cylinder.027"
		},
		{
			"mesh":7,
			"name":"Axe.006"
		}
	],
	"materials":[
		{
			"doubleSided":true,
			"name":"vert",
			"pbrMetallicRoughness":{
				"baseColorFactor":[
					0,
					1,
					0,
					1
				],
				"metallicFactor":0,
				"roughnessFactor":0.5
			}
		},
		{
			"doubleSided":true,
			"name":"solar panel",
			"pbrMetallicRoughness":{
				"baseColorTexture":{
					"index":0
				},
				"metallicFactor":0,
				"roughnessFactor":0.07253912836313248
			}
		},
		{
			"doubleSided":true,
			"name":"noir",
			"pbrMetallicRoughness":{
				"baseColorFactor":[
					0,
					0.005882382392883301,
					0,
					1
				],
				"metallicFactor":0,
				"roughnessFactor":0.5
			}
		},
		{
			"doubleSided":true,
			"name":"gris",
			"pbrMetallicRoughness":{
				"baseColorFactor":[
					0.5494534969329834,
					0.5494534969329834,
					0.5494534969329834,
					1
				],
				"metallicFactor":0,
				"roughnessFactor":0.5
			}
		}
	],
	"meshes":[
		{
			"name":"Cone.002",
			"primitives":[
				{
					"attributes":{
						"POSITION":0,
						"NORMAL":1,
						"TEXCOORD_0":2
					},
					"indices":3,
					"material":0
				}
			]
		},
		{
			"name":"Plane.012",
			"primitives":[
				{
					"attributes":{
						"POSITION":4,
						"NORMAL":5,
						"TEXCOORD_0":6
					},
					"indices":7,
					"material":1
				}
			]
		},
		{
			"name":"Plane.013",
			"primitives":[
				{
					"attributes":{
						"POSITION":8,
						"NORMAL":9,
						"TEXCOORD_0":10
					},
					"indices":7,
					"material":1
				}
			]
		},
		{
			"name":"Cylinder.031",
			"primitives":[
				{
					"attributes":{
						"POSITION":11,
						"NORMAL":12,
						"TEXCOORD_0":13
					},
					"indices":14,
					"material":0
				}
			]
		},
		{
			"name":"Cylinder.032",
			"primitives":[
				{
					"attributes":{
						"POSITION":15,
						"NORMAL":16,
						"TEXCOORD_0":17
					},
					"indices":18,
					"material":2
				}
			]
		},
		{
			"name":"Cylinder.033",
			"primitives":[
				{
					"attributes":{
						"POSITION":19,
						"NORMAL":20,
						"TEXCOORD_0":21
					},
					"indices":22,
					"material":3
				}
			]
		},
		{
			"name":"Cylinder.034",
			"primitives":[
				{
					"attributes":{
						"POSITION":23,
						"NORMAL":24,
						"TEXCOORD_0":25
					},
					"indices":26,
					"material":0
				}
			]
		},
		{
			"name":"Cylinder.035",
			"primitives":[
				{
					"attributes":{
						"POSITION":27,
						"NORMAL":28,
						"TEXCOORD_0":29
					},
					"indices":30,
					"material":3
				}
			]
		}
	],
	"textures":[
		{
			"sampler":0,
			"source":0
		}
	],
	"images":[
		{
			"mimeType":"image/png",
			"name":"panneau-solaire",
			"uri":"panneau-solaire.png"
		}
	],
	"accessors":[
		{
			"bufferView":0,
			"componentType":5126,
			"count":128,
			"max":[
				0.2676868438720703,
				4.023754119873047,
				0.26669949293136597
			],
			"min":[
				-0.26570892333984375,
				3.490356206893921,
				-0.26669836044311523
			],
			"type":"VEC3"
		},
		{
			"bufferView":1,
			"componentType":5126,
			"count":128,
			"type":"VEC3"
		},
		{
			"bufferView":2,
			"componentType":5126,
			"count":128,
			"type":"VEC2"
		},
		{
			"bufferView":3,
			"componentType":5123,
			"count":186,
			"type":"SCALAR"
		},
		{
			"bufferView":4,
			"componentType":5126,
			"count":4,
			"max":[
				-0.4405231475830078,
				3.0948925018310547,
				0.19074490666389465
			],
			"min":[
				-0.4405231475830078,
				2.454033851623535,
				-0.19074490666389465
			],
			"type":"VEC3"
		},
		{
			"bufferView":5,
			"componentType":5126,
			"count":4,
			"type":"VEC3"
		},
		{
			"bufferView":6,
			"componentType":5126,
			"count":4,
			"type":"VEC2"
		},
		{
			"bufferView":7,
			"componentType":5123,
			"count":6,
			"type":"SCALAR"
		},
		{
			"bufferView":8,
			"componentType":5126,
			"count":4,
			"max":[
				0.4435005187988281,
				3.0948925018310547,
				0.19074490666389465
			],
			"min":[
				0.4435005187988281,
				2.454033851623535,
				-0.19074490666389465
			],
			"type":"VEC3"
		},
		{
			"bufferView":9,
			"componentType":5126,
			"count":4,
			"type":"VEC3"
		},
		{
			"bufferView":10,
			"componentType":5126,
			"count":4,
			"type":"VEC2"
		},
		{
			"bufferView":11,
			"componentType":5126,
			"count":48,
			"max":[
				0.5286216735839844,
				1.2630422115325928,
				0.6103991270065308
			],
			"min":[
				-0.5286216735839844,
				1.2130422592163086,
				-0.6103991270065308
			],
			"type":"VEC3"
		},
		{
			"bufferView":12,
			"componentType":5126,
			"count":48,
			"type":"VEC3"
		},
		{
			"bufferView":13,
			"componentType":5126,
			"count":48,
			"type":"VEC2"
		},
		{
			"bufferView":14,
			"componentType":5123,
			"count":108,
			"type":"SCALAR"
		},
		{
			"bufferView":15,
			"componentType":5126,
			"count":36,
			"max":[
				0.5218715667724609,
				0.614372968673706,
				0.6026046276092529
			],
			"min":[
				-0.5218715667724609,
				0.49976682662963867,
				-0.6026046276092529
			],
			"type":"VEC3"
		},
		{
			"bufferView":16,
			"componentType":5126,
			"count":36,
			"type":"VEC3"
		},
		{
			"bufferView":17,
			"componentType":5126,
			"count":36,
			"type":"VEC2"
		},
		{
			"bufferView":18,
			"componentType":5123,
			"count":60,
			"type":"SCALAR"
		},
		{
			"bufferView":19,
			"componentType":5126,
			"count":130,
			"max":[
				0.8999996185302734,
				0.5,
				0.8999999761581421
			],
			"min":[
				-0.8999996185302734,
				-0.5,
				-0.8999999761581421
			],
			"type":"VEC3"
		},
		{
			"bufferView":20,
			"componentType":5126,
			"count":130,
			"type":"VEC3"
		},
		{
			"bufferView":21,
			"componentType":5126,
			"count":130,
			"type":"VEC2"
		},
		{
			"bufferView":22,
			"componentType":5123,
			"count":372,
			"type":"SCALAR"
		},
		{
			"bufferView":23,
			"componentType":5126,
			"count":312,
			"max":[
				0.4330120086669922,
				3.1125335693359375,
				0.5
			],
			"min":[
				-0.4330120086669922,
				0.612533688545227,
				-0.5
			],
			"type":"VEC3"
		},
		{
			"bufferView":24,
			"componentType":5126,
			"count":312,
			"type":"VEC3"
		},
		{
			"bufferView":25,
			"componentType":5126,
			"count":312,
			"type":"VEC2"
		},
		{
			"bufferView":26,
			"componentType":5123,
			"count":1200,
			"type":"SCALAR"
		},
		{
			"bufferView":27,
			"componentType":5126,
			"count":192,
			"max":[
				0.029436111450195312,
				3.9176526069641113,
				0.029436571523547173
			],
			"min":[
				-0.029436111450195312,
				2.9640181064605713,
				-0.029436571523547173
			],
			"type":"VEC3"
		},
		{
			"bufferView":28,
			"componentType":5126,
			"count":192,
			"type":"VEC3"
		},
		{
			"bufferView":29,
			"componentType":5126,
			"count":192,
			"type":"VEC2"
		},
		{
			"bufferView":30,
			"componentType":5123,
			"count":372,
			"type":"SCALAR"
		}
	],
	"bufferViews":[
		{
			"buffer":0,
			"byteLength":1536,
			"byteOffset":0,
			"target":34962
		},
		{
			"buffer":0,
			"byteLength":1536,
			"byteOffset":1536,
			"target":34962
		},
		{
			"buffer":0,
			"byteLength":1024,
			"byteOffset":3072,
			"target":34962
		},
		{
			"buffer":0,
			"byteLength":372,
			"byteOffset":4096,
			"target":34963
		},
		{
			"buffer":0,
			"byteLength":48,
			"byteOffset":4468,
			"target":34962
		},
		{
			"buffer":0,
			"byteLength":48,
			"byteOffset":4516,
			"target":34962
		},
		{
			"buffer":0,
			"byteLength":32,
			"byteOffset":4564,
			"target":34962
		},
		{
			"buffer":0,
			"byteLength":12,
			"byteOffset":4596,
			"target":34963
		},
		{
			"buffer":0,
			"byteLength":48,
			"byteOffset":4608,
			"target":34962
		},
		{
			"buffer":0,
			"byteLength":48,
			"byteOffset":4656,
			"target":34962
		},
		{
			"buffer":0,
			"byteLength":32,
			"byteOffset":4704,
			"target":34962
		},
		{
			"buffer":0,
			"byteLength":576,
			"byteOffset":4736,
			"target":34962
		},
		{
			"buffer":0,
			"byteLength":576,
			"byteOffset":5312,
			"target":34962
		},
		{
			"buffer":0,
			"byteLength":384,
			"byteOffset":5888,
			"target":34962
		},
		{
			"buffer":0,
			"byteLength":216,
			"byteOffset":6272,
			"target":34963
		},
		{
			"buffer":0,
			"byteLength":432,
			"byteOffset":6488,
			"target":34962
		},
		{
			"buffer":0,
			"byteLength":432,
			"byteOffset":6920,
			"target":34962
		},
		{
			"buffer":0,
			"byteLength":288,
			"byteOffset":7352,
			"target":34962
		},
		{
			"buffer":0,
			"byteLength":120,
			"byteOffset":7640,
			"target":34963
		},
		{
			"buffer":0,
			"byteLength":1560,
			"byteOffset":7760,
			"target":34962
		},
		{
			"buffer":0,
			"byteLength":1560,
			"byteOffset":9320,
			"target":34962
		},
		{
			"buffer":0,
			"byteLength":1040,
			"byteOffset":10880,
			"target":34962
		},
		{
			"buffer":0,
			"byteLength":744,
			"byteOffset":11920,
			"target":34963
		},
		{
			"buffer":0,
			"byteLength":3744,
			"byteOffset":12664,
			"target":34962
		},
		{
			"buffer":0,
			"byteLength":3744,
			"byteOffset":16408,
			"target":34962
		},
		{
			"buffer":0,
			"byteLength":2496,
			"byteOffset":20152,
			"target":34962
		},
		{
			"buffer":0,
			"byteLength":2400,
			"byteOffset":22648,
			"target":34963
		},
		{
			"buffer":0,
			"byteLength":2304,
			"byteOffset":25048,
			"target":34962
		},
		{
			"buffer":0,
			"byteLength":2304,
			"byteOffset":27352,
			"target":34962
		},
		{
			"buffer":0,
			"byteLength":1536,
			"byteOffset":29656,
			"target":34962
		},
		{
			"buffer":0,
			"byteLength":744,
			"byteOffset":31192,
			"target":34963
		}
	],
	"samplers":[
		{
			"magFilter":9729,
			"minFilter":9987
		}
	],
	"buffers":[
		{
			"byteLength":31936,
			"uri":"Boy-Starboard.bin"
		}
	]
}
