{
	"asset":{
		"generator":"Khronos glTF Blender I/O v4.2.57",
		"version":"2.0"
	},
	"scene":0,
	"scenes":[
		{
			"name":"Scene",
			"nodes":[
				0,
				1,
				2
			]
		}
	],
	"nodes":[
		{
			"mesh":0,
			"name":"Cylinder.035"
		},
		{
			"mesh":1,
			"name":"Cylinder.036"
		},
		{
			"mesh":2,
			"name":"Torus"
		}
	],
	"materials":[
		{
			"doubleSided":true,
			"name":"jaune",
			"pbrMetallicRoughness":{
				"baseColorFactor":[
					1,
					1,
					0,
					1
				],
				"metallicFactor":0,
				"roughnessFactor":0.5
			}
		},
		{
			"doubleSided":true,
			"name":"gris",
			"pbrMetallicRoughness":{
				"baseColorFactor":[
					0.5494534969329834,
					0.5494534969329834,
					0.5494534969329834,
					1
				],
				"metallicFactor":0,
				"roughnessFactor":0.5
			}
		}
	],
	"meshes":[
		{
			"name":"Cylinder.009",
			"primitives":[
				{
					"attributes":{
						"POSITION":0,
						"NORMAL":1,
						"TEXCOORD_0":2
					},
					"indices":3,
					"material":0
				}
			]
		},
		{
			"name":"Cylinder.037",
			"primitives":[
				{
					"attributes":{
						"POSITION":4,
						"NORMAL":5,
						"TEXCOORD_0":6
					},
					"indices":7,
					"material":1
				}
			]
		},
		{
			"name":"Torus",
			"primitives":[
				{
					"attributes":{
						"POSITION":8,
						"NORMAL":9,
						"TEXCOORD_0":10
					},
					"indices":11,
					"material":1
				}
			]
		}
	],
	"accessors":[
		{
			"bufferView":0,
			"componentType":5126,
			"count":384,
			"max":[
				1.7999999523162842,
				1.0065655708312988,
				1.7999999523162842
			],
			"min":[
				-1.7999999523162842,
				-0.1934344470500946,
				-1.7999999523162842
			],
			"type":"VEC3"
		},
		{
			"bufferView":1,
			"componentType":5126,
			"count":384,
			"type":"VEC3"
		},
		{
			"bufferView":2,
			"componentType":5126,
			"count":384,
			"type":"VEC2"
		},
		{
			"bufferView":3,
			"componentType":5123,
			"count":756,
			"type":"SCALAR"
		},
		{
			"bufferView":4,
			"componentType":5126,
			"count":640,
			"max":[
				1.7999999523162842,
				-0.1934344470500946,
				1.7999999523162842
			],
			"min":[
				-1.7999999523162842,
				-2.233215808868408,
				-1.7999999523162842
			],
			"type":"VEC3"
		},
		{
			"bufferView":5,
			"componentType":5126,
			"count":640,
			"type":"VEC3"
		},
		{
			"bufferView":6,
			"componentType":5126,
			"count":640,
			"type":"VEC2"
		},
		{
			"bufferView":7,
			"componentType":5123,
			"count":1140,
			"type":"SCALAR"
		},
		{
			"bufferView":8,
			"componentType":5126,
			"count":1152,
			"max":[
				0.33000004291534424,
				1.3352186679840088,
				0.060000013560056686
			],
			"min":[
				-0.33000004291534424,
				1.0052186250686646,
				-0.06000000238418579
			],
			"type":"VEC3"
		},
		{
			"bufferView":9,
			"componentType":5126,
			"count":1152,
			"type":"VEC3"
		},
		{
			"bufferView":10,
			"componentType":5126,
			"count":1152,
			"type":"VEC2"
		},
		{
			"bufferView":11,
			"componentType":5123,
			"count":1728,
			"type":"SCALAR"
		}
	],
	"bufferViews":[
		{
			"buffer":0,
			"byteLength":4608,
			"byteOffset":0,
			"target":34962
		},
		{
			"buffer":0,
			"byteLength":4608,
			"byteOffset":4608,
			"target":34962
		},
		{
			"buffer":0,
			"byteLength":3072,
			"byteOffset":9216,
			"target":34962
		},
		{
			"buffer":0,
			"byteLength":1512,
			"byteOffset":12288,
			"target":34963
		},
		{
			"buffer":0,
			"byteLength":7680,
			"byteOffset":13800,
			"target":34962
		},
		{
			"buffer":0,
			"byteLength":7680,
			"byteOffset":21480,
			"target":34962
		},
		{
			"buffer":0,
			"byteLength":5120,
			"byteOffset":29160,
			"target":34962
		},
		{
			"buffer":0,
			"byteLength":2280,
			"byteOffset":34280,
			"target":34963
		},
		{
			"buffer":0,
			"byteLength":13824,
			"byteOffset":36560,
			"target":34962
		},
		{
			"buffer":0,
			"byteLength":13824,
			"byteOffset":50384,
			"target":34962
		},
		{
			"buffer":0,
			"byteLength":9216,
			"byteOffset":64208,
			"target":34962
		},
		{
			"buffer":0,
			"byteLength":3456,
			"byteOffset":73424,
			"target":34963
		}
	],
	"buffers":[
		{
			"byteLength":76880,
			"uri":"Boy-Mooring.bin"
		}
	]
}
