{
	"asset":{
		"generator":"Khronos glTF Blender I/O v4.2.57",
		"version":"2.0"
	},
	"scene":0,
	"scenes":[
		{
			"name":"Scene",
			"nodes":[
				0,
				1,
				2,
				3,
				4,
				5,
				6,
				7,
				8
			]
		}
	],
	"nodes":[
		{
			"mesh":0,
			"name":"Plane.004"
		},
		{
			"mesh":1,
			"name":"Plane.005"
		},
		{
			"mesh":2,
			"name":"Cylinder.008"
		},
		{
			"mesh":3,
			"name":"Cylinder.009"
		},
		{
			"mesh":4,
			"name":"Cylinder.010"
		},
		{
			"mesh":5,
			"name":"Cylinder.011"
		},
		{
			"mesh":6,
			"name":"Cone 2.003"
		},
		{
			"mesh":7,
			"name":"Cone 1.004"
		},
		{
			"mesh":8,
			"name":"Axe.002"
		}
	],
	"materials":[
		{
			"doubleSided":true,
			"name":"solar panel",
			"pbrMetallicRoughness":{
				"baseColorTexture":{
					"index":0
				},
				"metallicFactor":0,
				"roughnessFactor":0.07253912836313248
			}
		},
		{
			"doubleSided":true,
			"name":"jaune",
			"pbrMetallicRoughness":{
				"baseColorFactor":[
					1,
					1,
					0,
					1
				],
				"metallicFactor":0,
				"roughnessFactor":0.5
			}
		},
		{
			"doubleSided":true,
			"name":"noir",
			"pbrMetallicRoughness":{
				"baseColorFactor":[
					0,
					0.005882382392883301,
					0,
					1
				],
				"metallicFactor":0,
				"roughnessFactor":0.5
			}
		},
		{
			"doubleSided":true,
			"name":"gris",
			"pbrMetallicRoughness":{
				"baseColorFactor":[
					0.5494534969329834,
					0.5494534969329834,
					0.5494534969329834,
					1
				],
				"metallicFactor":0,
				"roughnessFactor":0.5
			}
		}
	],
	"meshes":[
		{
			"name":"Plane.004",
			"primitives":[
				{
					"attributes":{
						"POSITION":0,
						"NORMAL":1,
						"TEXCOORD_0":2
					},
					"indices":3,
					"material":0
				}
			]
		},
		{
			"name":"Plane.005",
			"primitives":[
				{
					"attributes":{
						"POSITION":4,
						"NORMAL":5,
						"TEXCOORD_0":6
					},
					"indices":3,
					"material":0
				}
			]
		},
		{
			"name":"Cylinder.011",
			"primitives":[
				{
					"attributes":{
						"POSITION":7,
						"NORMAL":8,
						"TEXCOORD_0":9
					},
					"indices":10,
					"material":1
				}
			]
		},
		{
			"name":"Cylinder.012",
			"primitives":[
				{
					"attributes":{
						"POSITION":11,
						"NORMAL":12,
						"TEXCOORD_0":13
					},
					"indices":14,
					"material":2
				}
			]
		},
		{
			"name":"Cylinder.013",
			"primitives":[
				{
					"attributes":{
						"POSITION":15,
						"NORMAL":16,
						"TEXCOORD_0":17
					},
					"indices":18,
					"material":3
				}
			]
		},
		{
			"name":"Cylinder.014",
			"primitives":[
				{
					"attributes":{
						"POSITION":19,
						"NORMAL":20,
						"TEXCOORD_0":21
					},
					"indices":22,
					"material":2
				},
				{
					"attributes":{
						"POSITION":23,
						"NORMAL":24,
						"TEXCOORD_0":25
					},
					"indices":26,
					"material":1
				}
			]
		},
		{
			"name":"Cone.008",
			"primitives":[
				{
					"attributes":{
						"POSITION":27,
						"NORMAL":28,
						"TEXCOORD_0":29
					},
					"indices":30,
					"material":2
				}
			]
		},
		{
			"name":"Cone.009",
			"primitives":[
				{
					"attributes":{
						"POSITION":31,
						"NORMAL":32,
						"TEXCOORD_0":33
					},
					"indices":34,
					"material":2
				}
			]
		},
		{
			"name":"Cylinder.015",
			"primitives":[
				{
					"attributes":{
						"POSITION":35,
						"NORMAL":36,
						"TEXCOORD_0":37
					},
					"indices":38,
					"material":3
				}
			]
		}
	],
	"textures":[
		{
			"sampler":0,
			"source":0
		}
	],
	"images":[
		{
			"mimeType":"image/png",
			"name":"panneau-solaire",
			"uri":"panneau-solaire.png"
		}
	],
	"accessors":[
		{
			"bufferView":0,
			"componentType":5126,
			"count":4,
			"max":[
				-0.4405231475830078,
				3.0948925018310547,
				0.19074490666389465
			],
			"min":[
				-0.4405231475830078,
				2.454033851623535,
				-0.19074490666389465
			],
			"type":"VEC3"
		},
		{
			"bufferView":1,
			"componentType":5126,
			"count":4,
			"type":"VEC3"
		},
		{
			"bufferView":2,
			"componentType":5126,
			"count":4,
			"type":"VEC2"
		},
		{
			"bufferView":3,
			"componentType":5123,
			"count":6,
			"type":"SCALAR"
		},
		{
			"bufferView":4,
			"componentType":5126,
			"count":4,
			"max":[
				0.44350147247314453,
				3.0948925018310547,
				0.19074490666389465
			],
			"min":[
				0.44350147247314453,
				2.454033851623535,
				-0.19074490666389465
			],
			"type":"VEC3"
		},
		{
			"bufferView":5,
			"componentType":5126,
			"count":4,
			"type":"VEC3"
		},
		{
			"bufferView":6,
			"componentType":5126,
			"count":4,
			"type":"VEC2"
		},
		{
			"bufferView":7,
			"componentType":5126,
			"count":48,
			"max":[
				0.5286216735839844,
				1.2630422115325928,
				0.6103991270065308
			],
			"min":[
				-0.5286216735839844,
				1.2130422592163086,
				-0.6103991270065308
			],
			"type":"VEC3"
		},
		{
			"bufferView":8,
			"componentType":5126,
			"count":48,
			"type":"VEC3"
		},
		{
			"bufferView":9,
			"componentType":5126,
			"count":48,
			"type":"VEC2"
		},
		{
			"bufferView":10,
			"componentType":5123,
			"count":108,
			"type":"SCALAR"
		},
		{
			"bufferView":11,
			"componentType":5126,
			"count":36,
			"max":[
				0.5218706130981445,
				0.614372968673706,
				0.6026046276092529
			],
			"min":[
				-0.5218706130981445,
				0.49976682662963867,
				-0.6026046276092529
			],
			"type":"VEC3"
		},
		{
			"bufferView":12,
			"componentType":5126,
			"count":36,
			"type":"VEC3"
		},
		{
			"bufferView":13,
			"componentType":5126,
			"count":36,
			"type":"VEC2"
		},
		{
			"bufferView":14,
			"componentType":5123,
			"count":60,
			"type":"SCALAR"
		},
		{
			"bufferView":15,
			"componentType":5126,
			"count":130,
			"max":[
				0.8999996185302734,
				0.5,
				0.8999999761581421
			],
			"min":[
				-0.8999996185302734,
				-0.5,
				-0.8999999761581421
			],
			"type":"VEC3"
		},
		{
			"bufferView":16,
			"componentType":5126,
			"count":130,
			"type":"VEC3"
		},
		{
			"bufferView":17,
			"componentType":5126,
			"count":130,
			"type":"VEC2"
		},
		{
			"bufferView":18,
			"componentType":5123,
			"count":372,
			"type":"SCALAR"
		},
		{
			"bufferView":19,
			"componentType":5126,
			"count":90,
			"max":[
				0.4330129623413086,
				2.1750335693359375,
				0.5
			],
			"min":[
				-0.4330129623413086,
				0.612533688545227,
				-0.5
			],
			"type":"VEC3"
		},
		{
			"bufferView":20,
			"componentType":5126,
			"count":90,
			"type":"VEC3"
		},
		{
			"bufferView":21,
			"componentType":5126,
			"count":90,
			"type":"VEC2"
		},
		{
			"bufferView":22,
			"componentType":5123,
			"count":300,
			"type":"SCALAR"
		},
		{
			"bufferView":23,
			"componentType":5126,
			"count":246,
			"max":[
				0.4330129623413086,
				3.1125335693359375,
				0.5
			],
			"min":[
				-0.4330129623413086,
				0.612533688545227,
				-0.5
			],
			"type":"VEC3"
		},
		{
			"bufferView":24,
			"componentType":5126,
			"count":246,
			"type":"VEC3"
		},
		{
			"bufferView":25,
			"componentType":5126,
			"count":246,
			"type":"VEC2"
		},
		{
			"bufferView":26,
			"componentType":5123,
			"count":900,
			"type":"SCALAR"
		},
		{
			"bufferView":27,
			"componentType":5126,
			"count":128,
			"max":[
				0.19999980926513672,
				4.082197189331055,
				0.20000000298023224
			],
			"min":[
				-0.19999980926513672,
				3.6821975708007812,
				-0.20000000298023224
			],
			"type":"VEC3"
		},
		{
			"bufferView":28,
			"componentType":5126,
			"count":128,
			"type":"VEC3"
		},
		{
			"bufferView":29,
			"componentType":5126,
			"count":128,
			"type":"VEC2"
		},
		{
			"bufferView":30,
			"componentType":5123,
			"count":186,
			"type":"SCALAR"
		},
		{
			"bufferView":31,
			"componentType":5126,
			"count":128,
			"max":[
				0.1999988555908203,
				3.801135540008545,
				0.20000000298023224
			],
			"min":[
				-0.20000076293945312,
				3.4011354446411133,
				-0.20000000298023224
			],
			"type":"VEC3"
		},
		{
			"bufferView":32,
			"componentType":5126,
			"count":128,
			"type":"VEC3"
		},
		{
			"bufferView":33,
			"componentType":5126,
			"count":128,
			"type":"VEC2"
		},
		{
			"bufferView":34,
			"componentType":5123,
			"count":186,
			"type":"SCALAR"
		},
		{
			"bufferView":35,
			"componentType":5126,
			"count":192,
			"max":[
				0.029436111450195312,
				3.9176526069641113,
				0.029436571523547173
			],
			"min":[
				-0.029436111450195312,
				2.9640181064605713,
				-0.029436571523547173
			],
			"type":"VEC3"
		},
		{
			"bufferView":36,
			"componentType":5126,
			"count":192,
			"type":"VEC3"
		},
		{
			"bufferView":37,
			"componentType":5126,
			"count":192,
			"type":"VEC2"
		},
		{
			"bufferView":38,
			"componentType":5123,
			"count":372,
			"type":"SCALAR"
		}
	],
	"bufferViews":[
		{
			"buffer":0,
			"byteLength":48,
			"byteOffset":0,
			"target":34962
		},
		{
			"buffer":0,
			"byteLength":48,
			"byteOffset":48,
			"target":34962
		},
		{
			"buffer":0,
			"byteLength":32,
			"byteOffset":96,
			"target":34962
		},
		{
			"buffer":0,
			"byteLength":12,
			"byteOffset":128,
			"target":34963
		},
		{
			"buffer":0,
			"byteLength":48,
			"byteOffset":140,
			"target":34962
		},
		{
			"buffer":0,
			"byteLength":48,
			"byteOffset":188,
			"target":34962
		},
		{
			"buffer":0,
			"byteLength":32,
			"byteOffset":236,
			"target":34962
		},
		{
			"buffer":0,
			"byteLength":576,
			"byteOffset":268,
			"target":34962
		},
		{
			"buffer":0,
			"byteLength":576,
			"byteOffset":844,
			"target":34962
		},
		{
			"buffer":0,
			"byteLength":384,
			"byteOffset":1420,
			"target":34962
		},
		{
			"buffer":0,
			"byteLength":216,
			"byteOffset":1804,
			"target":34963
		},
		{
			"buffer":0,
			"byteLength":432,
			"byteOffset":2020,
			"target":34962
		},
		{
			"buffer":0,
			"byteLength":432,
			"byteOffset":2452,
			"target":34962
		},
		{
			"buffer":0,
			"byteLength":288,
			"byteOffset":2884,
			"target":34962
		},
		{
			"buffer":0,
			"byteLength":120,
			"byteOffset":3172,
			"target":34963
		},
		{
			"buffer":0,
			"byteLength":1560,
			"byteOffset":3292,
			"target":34962
		},
		{
			"buffer":0,
			"byteLength":1560,
			"byteOffset":4852,
			"target":34962
		},
		{
			"buffer":0,
			"byteLength":1040,
			"byteOffset":6412,
			"target":34962
		},
		{
			"buffer":0,
			"byteLength":744,
			"byteOffset":7452,
			"target":34963
		},
		{
			"buffer":0,
			"byteLength":1080,
			"byteOffset":8196,
			"target":34962
		},
		{
			"buffer":0,
			"byteLength":1080,
			"byteOffset":9276,
			"target":34962
		},
		{
			"buffer":0,
			"byteLength":720,
			"byteOffset":10356,
			"target":34962
		},
		{
			"buffer":0,
			"byteLength":600,
			"byteOffset":11076,
			"target":34963
		},
		{
			"buffer":0,
			"byteLength":2952,
			"byteOffset":11676,
			"target":34962
		},
		{
			"buffer":0,
			"byteLength":2952,
			"byteOffset":14628,
			"target":34962
		},
		{
			"buffer":0,
			"byteLength":1968,
			"byteOffset":17580,
			"target":34962
		},
		{
			"buffer":0,
			"byteLength":1800,
			"byteOffset":19548,
			"target":34963
		},
		{
			"buffer":0,
			"byteLength":1536,
			"byteOffset":21348,
			"target":34962
		},
		{
			"buffer":0,
			"byteLength":1536,
			"byteOffset":22884,
			"target":34962
		},
		{
			"buffer":0,
			"byteLength":1024,
			"byteOffset":24420,
			"target":34962
		},
		{
			"buffer":0,
			"byteLength":372,
			"byteOffset":25444,
			"target":34963
		},
		{
			"buffer":0,
			"byteLength":1536,
			"byteOffset":25816,
			"target":34962
		},
		{
			"buffer":0,
			"byteLength":1536,
			"byteOffset":27352,
			"target":34962
		},
		{
			"buffer":0,
			"byteLength":1024,
			"byteOffset":28888,
			"target":34962
		},
		{
			"buffer":0,
			"byteLength":372,
			"byteOffset":29912,
			"target":34963
		},
		{
			"buffer":0,
			"byteLength":2304,
			"byteOffset":30284,
			"target":34962
		},
		{
			"buffer":0,
			"byteLength":2304,
			"byteOffset":32588,
			"target":34962
		},
		{
			"buffer":0,
			"byteLength":1536,
			"byteOffset":34892,
			"target":34962
		},
		{
			"buffer":0,
			"byteLength":744,
			"byteOffset":36428,
			"target":34963
		}
	],
	"samplers":[
		{
			"magFilter":9729,
			"minFilter":9987
		}
	],
	"buffers":[
		{
			"byteLength":37172,
			"uri":"Boy-West.bin"
		}
	]
}
