{
	"asset":{
		"generator":"Khronos glTF Blender I/O v4.2.57",
		"version":"2.0"
	},
	"scene":0,
	"scenes":[
		{
			"name":"Scene",
			"nodes":[
				0,
				1,
				2,
				3,
				4,
				5,
				6,
				7,
				8
			]
		}
	],
	"nodes":[
		{
			"mesh":0,
			"name":"Sphere 1"
		},
		{
			"mesh":1,
			"name":"Sphere 2"
		},
		{
			"mesh":2,
			"name":"Plane.006"
		},
		{
			"mesh":3,
			"name":"Plane.007"
		},
		{
			"mesh":4,
			"name":"Cylinder.012"
		},
		{
			"mesh":5,
			"name":"Cylinder.013"
		},
		{
			"mesh":6,
			"name":"Cylinder.014"
		},
		{
			"mesh":7,
			"name":"Cylinder.015"
		},
		{
			"mesh":8,
			"name":"Axe.003"
		}
	],
	"materials":[
		{
			"doubleSided":true,
			"name":"noir",
			"pbrMetallicRoughness":{
				"baseColorFactor":[
					0,
					0.005882382392883301,
					0,
					1
				],
				"metallicFactor":0,
				"roughnessFactor":0.5
			}
		},
		{
			"doubleSided":true,
			"name":"solar panel",
			"pbrMetallicRoughness":{
				"baseColorTexture":{
					"index":0
				},
				"metallicFactor":0,
				"roughnessFactor":0.07253912836313248
			}
		},
		{
			"doubleSided":true,
			"name":"rouge",
			"pbrMetallicRoughness":{
				"baseColorFactor":[
					1,
					0,
					0,
					1
				],
				"metallicFactor":0,
				"roughnessFactor":0.5
			}
		},
		{
			"doubleSided":true,
			"name":"gris",
			"pbrMetallicRoughness":{
				"baseColorFactor":[
					0.5494534969329834,
					0.5494534969329834,
					0.5494534969329834,
					1
				],
				"metallicFactor":0,
				"roughnessFactor":0.5
			}
		}
	],
	"meshes":[
		{
			"name":"Sphere",
			"primitives":[
				{
					"attributes":{
						"POSITION":0,
						"NORMAL":1,
						"TEXCOORD_0":2
					},
					"indices":3,
					"material":0
				}
			]
		},
		{
			"name":"Sphere.001",
			"primitives":[
				{
					"attributes":{
						"POSITION":4,
						"NORMAL":5,
						"TEXCOORD_0":6
					},
					"indices":7,
					"material":0
				}
			]
		},
		{
			"name":"Plane.006",
			"primitives":[
				{
					"attributes":{
						"POSITION":8,
						"NORMAL":9,
						"TEXCOORD_0":10
					},
					"indices":11,
					"material":1
				}
			]
		},
		{
			"name":"Plane.007",
			"primitives":[
				{
					"attributes":{
						"POSITION":12,
						"NORMAL":13,
						"TEXCOORD_0":14
					},
					"indices":11,
					"material":1
				}
			]
		},
		{
			"name":"Cylinder.016",
			"primitives":[
				{
					"attributes":{
						"POSITION":15,
						"NORMAL":16,
						"TEXCOORD_0":17
					},
					"indices":18,
					"material":0
				},
				{
					"attributes":{
						"POSITION":19,
						"NORMAL":20,
						"TEXCOORD_0":21
					},
					"indices":22,
					"material":2
				}
			]
		},
		{
			"name":"Cylinder.017",
			"primitives":[
				{
					"attributes":{
						"POSITION":23,
						"NORMAL":24,
						"TEXCOORD_0":25
					},
					"indices":26,
					"material":3
				}
			]
		},
		{
			"name":"Cylinder.018",
			"primitives":[
				{
					"attributes":{
						"POSITION":27,
						"NORMAL":28,
						"TEXCOORD_0":29
					},
					"indices":30,
					"material":0
				}
			]
		},
		{
			"name":"Cylinder.019",
			"primitives":[
				{
					"attributes":{
						"POSITION":31,
						"NORMAL":32,
						"TEXCOORD_0":33
					},
					"indices":34,
					"material":0
				}
			]
		},
		{
			"name":"Cylinder.020",
			"primitives":[
				{
					"attributes":{
						"POSITION":35,
						"NORMAL":36,
						"TEXCOORD_0":37
					},
					"indices":38,
					"material":3
				}
			]
		}
	],
	"textures":[
		{
			"sampler":0,
			"source":0
		}
	],
	"images":[
		{
			"mimeType":"image/png",
			"name":"panneau-solaire",
			"uri":"panneau-solaire.png"
		}
	],
	"accessors":[
		{
			"bufferView":0,
			"componentType":5126,
			"count":1984,
			"max":[
				0.2008380889892578,
				4.093889236450195,
				0.19999997317790985
			],
			"min":[
				-0.19916152954101562,
				3.6938891410827637,
				-0.20000004768371582
			],
			"type":"VEC3"
		},
		{
			"bufferView":1,
			"componentType":5126,
			"count":1984,
			"type":"VEC3"
		},
		{
			"bufferView":2,
			"componentType":5126,
			"count":1984,
			"type":"VEC2"
		},
		{
			"bufferView":3,
			"componentType":5123,
			"count":2880,
			"type":"SCALAR"
		},
		{
			"bufferView":4,
			"componentType":5126,
			"count":1984,
			"max":[
				0.2008380889892578,
				3.6908907890319824,
				0.19999997317790985
			],
			"min":[
				-0.19916152954101562,
				3.290890693664551,
				-0.20000004768371582
			],
			"type":"VEC3"
		},
		{
			"bufferView":5,
			"componentType":5126,
			"count":1984,
			"type":"VEC3"
		},
		{
			"bufferView":6,
			"componentType":5126,
			"count":1984,
			"type":"VEC2"
		},
		{
			"bufferView":7,
			"componentType":5123,
			"count":2880,
			"type":"SCALAR"
		},
		{
			"bufferView":8,
			"componentType":5126,
			"count":4,
			"max":[
				0.44350147247314453,
				3.0948925018310547,
				0.19074490666389465
			],
			"min":[
				0.44350147247314453,
				2.454033851623535,
				-0.19074490666389465
			],
			"type":"VEC3"
		},
		{
			"bufferView":9,
			"componentType":5126,
			"count":4,
			"type":"VEC3"
		},
		{
			"bufferView":10,
			"componentType":5126,
			"count":4,
			"type":"VEC2"
		},
		{
			"bufferView":11,
			"componentType":5123,
			"count":6,
			"type":"SCALAR"
		},
		{
			"bufferView":12,
			"componentType":5126,
			"count":4,
			"max":[
				-0.4405231475830078,
				3.0948925018310547,
				0.19074490666389465
			],
			"min":[
				-0.4405231475830078,
				2.454033851623535,
				-0.19074490666389465
			],
			"type":"VEC3"
		},
		{
			"bufferView":13,
			"componentType":5126,
			"count":4,
			"type":"VEC3"
		},
		{
			"bufferView":14,
			"componentType":5126,
			"count":4,
			"type":"VEC2"
		},
		{
			"bufferView":15,
			"componentType":5126,
			"count":252,
			"max":[
				0.4330120086669922,
				3.1125335693359375,
				0.5
			],
			"min":[
				-0.4330129623413086,
				0.612533688545227,
				-0.5
			],
			"type":"VEC3"
		},
		{
			"bufferView":16,
			"componentType":5126,
			"count":252,
			"type":"VEC3"
		},
		{
			"bufferView":17,
			"componentType":5126,
			"count":252,
			"type":"VEC2"
		},
		{
			"bufferView":18,
			"componentType":5123,
			"count":912,
			"type":"SCALAR"
		},
		{
			"bufferView":19,
			"componentType":5126,
			"count":84,
			"max":[
				0.4330120086669922,
				2.1750335693359375,
				0.5
			],
			"min":[
				-0.4330129623413086,
				1.550033688545227,
				-0.5
			],
			"type":"VEC3"
		},
		{
			"bufferView":20,
			"componentType":5126,
			"count":84,
			"type":"VEC3"
		},
		{
			"bufferView":21,
			"componentType":5126,
			"count":84,
			"type":"VEC2"
		},
		{
			"bufferView":22,
			"componentType":5123,
			"count":288,
			"type":"SCALAR"
		},
		{
			"bufferView":23,
			"componentType":5126,
			"count":130,
			"max":[
				0.8999996185302734,
				0.5,
				0.8999999761581421
			],
			"min":[
				-0.8999996185302734,
				-0.5,
				-0.8999999761581421
			],
			"type":"VEC3"
		},
		{
			"bufferView":24,
			"componentType":5126,
			"count":130,
			"type":"VEC3"
		},
		{
			"bufferView":25,
			"componentType":5126,
			"count":130,
			"type":"VEC2"
		},
		{
			"bufferView":26,
			"componentType":5123,
			"count":372,
			"type":"SCALAR"
		},
		{
			"bufferView":27,
			"componentType":5126,
			"count":36,
			"max":[
				0.5218715667724609,
				0.614372968673706,
				0.6026046276092529
			],
			"min":[
				-0.5218706130981445,
				0.49976682662963867,
				-0.6026046276092529
			],
			"type":"VEC3"
		},
		{
			"bufferView":28,
			"componentType":5126,
			"count":36,
			"type":"VEC3"
		},
		{
			"bufferView":29,
			"componentType":5126,
			"count":36,
			"type":"VEC2"
		},
		{
			"bufferView":30,
			"componentType":5123,
			"count":60,
			"type":"SCALAR"
		},
		{
			"bufferView":31,
			"componentType":5126,
			"count":48,
			"max":[
				0.5286216735839844,
				1.2630422115325928,
				0.6103991270065308
			],
			"min":[
				-0.5286216735839844,
				1.2130422592163086,
				-0.6103991270065308
			],
			"type":"VEC3"
		},
		{
			"bufferView":32,
			"componentType":5126,
			"count":48,
			"type":"VEC3"
		},
		{
			"bufferView":33,
			"componentType":5126,
			"count":48,
			"type":"VEC2"
		},
		{
			"bufferView":34,
			"componentType":5123,
			"count":108,
			"type":"SCALAR"
		},
		{
			"bufferView":35,
			"componentType":5126,
			"count":192,
			"max":[
				0.029436111450195312,
				3.9176526069641113,
				0.029436571523547173
			],
			"min":[
				-0.029436111450195312,
				2.9640181064605713,
				-0.029436571523547173
			],
			"type":"VEC3"
		},
		{
			"bufferView":36,
			"componentType":5126,
			"count":192,
			"type":"VEC3"
		},
		{
			"bufferView":37,
			"componentType":5126,
			"count":192,
			"type":"VEC2"
		},
		{
			"bufferView":38,
			"componentType":5123,
			"count":372,
			"type":"SCALAR"
		}
	],
	"bufferViews":[
		{
			"buffer":0,
			"byteLength":23808,
			"byteOffset":0,
			"target":34962
		},
		{
			"buffer":0,
			"byteLength":23808,
			"byteOffset":23808,
			"target":34962
		},
		{
			"buffer":0,
			"byteLength":15872,
			"byteOffset":47616,
			"target":34962
		},
		{
			"buffer":0,
			"byteLength":5760,
			"byteOffset":63488,
			"target":34963
		},
		{
			"buffer":0,
			"byteLength":23808,
			"byteOffset":69248,
			"target":34962
		},
		{
			"buffer":0,
			"byteLength":23808,
			"byteOffset":93056,
			"target":34962
		},
		{
			"buffer":0,
			"byteLength":15872,
			"byteOffset":116864,
			"target":34962
		},
		{
			"buffer":0,
			"byteLength":5760,
			"byteOffset":132736,
			"target":34963
		},
		{
			"buffer":0,
			"byteLength":48,
			"byteOffset":138496,
			"target":34962
		},
		{
			"buffer":0,
			"byteLength":48,
			"byteOffset":138544,
			"target":34962
		},
		{
			"buffer":0,
			"byteLength":32,
			"byteOffset":138592,
			"target":34962
		},
		{
			"buffer":0,
			"byteLength":12,
			"byteOffset":138624,
			"target":34963
		},
		{
			"buffer":0,
			"byteLength":48,
			"byteOffset":138636,
			"target":34962
		},
		{
			"buffer":0,
			"byteLength":48,
			"byteOffset":138684,
			"target":34962
		},
		{
			"buffer":0,
			"byteLength":32,
			"byteOffset":138732,
			"target":34962
		},
		{
			"buffer":0,
			"byteLength":3024,
			"byteOffset":138764,
			"target":34962
		},
		{
			"buffer":0,
			"byteLength":3024,
			"byteOffset":141788,
			"target":34962
		},
		{
			"buffer":0,
			"byteLength":2016,
			"byteOffset":144812,
			"target":34962
		},
		{
			"buffer":0,
			"byteLength":1824,
			"byteOffset":146828,
			"target":34963
		},
		{
			"buffer":0,
			"byteLength":1008,
			"byteOffset":148652,
			"target":34962
		},
		{
			"buffer":0,
			"byteLength":1008,
			"byteOffset":149660,
			"target":34962
		},
		{
			"buffer":0,
			"byteLength":672,
			"byteOffset":150668,
			"target":34962
		},
		{
			"buffer":0,
			"byteLength":576,
			"byteOffset":151340,
			"target":34963
		},
		{
			"buffer":0,
			"byteLength":1560,
			"byteOffset":151916,
			"target":34962
		},
		{
			"buffer":0,
			"byteLength":1560,
			"byteOffset":153476,
			"target":34962
		},
		{
			"buffer":0,
			"byteLength":1040,
			"byteOffset":155036,
			"target":34962
		},
		{
			"buffer":0,
			"byteLength":744,
			"byteOffset":156076,
			"target":34963
		},
		{
			"buffer":0,
			"byteLength":432,
			"byteOffset":156820,
			"target":34962
		},
		{
			"buffer":0,
			"byteLength":432,
			"byteOffset":157252,
			"target":34962
		},
		{
			"buffer":0,
			"byteLength":288,
			"byteOffset":157684,
			"target":34962
		},
		{
			"buffer":0,
			"byteLength":120,
			"byteOffset":157972,
			"target":34963
		},
		{
			"buffer":0,
			"byteLength":576,
			"byteOffset":158092,
			"target":34962
		},
		{
			"buffer":0,
			"byteLength":576,
			"byteOffset":158668,
			"target":34962
		},
		{
			"buffer":0,
			"byteLength":384,
			"byteOffset":159244,
			"target":34962
		},
		{
			"buffer":0,
			"byteLength":216,
			"byteOffset":159628,
			"target":34963
		},
		{
			"buffer":0,
			"byteLength":2304,
			"byteOffset":159844,
			"target":34962
		},
		{
			"buffer":0,
			"byteLength":2304,
			"byteOffset":162148,
			"target":34962
		},
		{
			"buffer":0,
			"byteLength":1536,
			"byteOffset":164452,
			"target":34962
		},
		{
			"buffer":0,
			"byteLength":744,
			"byteOffset":165988,
			"target":34963
		}
	],
	"samplers":[
		{
			"magFilter":9729,
			"minFilter":9987
		}
	],
	"buffers":[
		{
			"byteLength":166732,
			"uri":"Boy-Danger.bin"
		}
	]
}
