{
	"asset":{
		"generator":"Khronos glTF Blender I/O v5.0.21",
		"version":"2.0"
	},
	"scene":0,
	"scenes":[
		{
			"name":"Scene",
			"nodes":[
				0
			]
		}
	],
	"nodes":[
		{
			"mesh":0,
			"name":"radar01_Details_0"
		}
	],
	"materials":[
		{
			"doubleSided":true,
			"name":"Material.001",
			"pbrMetallicRoughness":{
				"baseColorFactor":[
					0.621130108833313,
					0.621130108833313,
					0.621130108833313,
					1
				],
				"metallicFactor":0.1822916716337204,
				"roughnessFactor":0.7864583730697632
			}
		}
	],
	"meshes":[
		{
			"name":"radar01_Details_0",
			"primitives":[
				{
					"attributes":{
						"POSITION":0,
						"NORMAL":1,
						"TEXCOORD_0":2,
						"TEXCOORD_1":3
					},
					"indices":4,
					"material":0
				}
			]
		}
	],
	"accessors":[
		{
			"bufferView":0,
			"componentType":5126,
			"count":345,
			"max":[
				2.285923480987549,
				1.269479751586914,
				2.379945993423462
			],
			"min":[
				-2.090627908706665,
				-0.000476837158203125,
				-2.3624634742736816
			],
			"type":"VEC3"
		},
		{
			"bufferView":1,
			"componentType":5126,
			"count":345,
			"type":"VEC3"
		},
		{
			"bufferView":2,
			"componentType":5126,
			"count":345,
			"type":"VEC2"
		},
		{
			"bufferView":3,
			"componentType":5126,
			"count":345,
			"type":"VEC2"
		},
		{
			"bufferView":4,
			"componentType":5123,
			"count":444,
			"type":"SCALAR"
		}
	],
	"bufferViews":[
		{
			"buffer":0,
			"byteLength":4140,
			"byteOffset":0,
			"target":34962
		},
		{
			"buffer":0,
			"byteLength":4140,
			"byteOffset":4140,
			"target":34962
		},
		{
			"buffer":0,
			"byteLength":2760,
			"byteOffset":8280,
			"target":34962
		},
		{
			"buffer":0,
			"byteLength":2760,
			"byteOffset":11040,
			"target":34962
		},
		{
			"buffer":0,
			"byteLength":888,
			"byteOffset":13800,
			"target":34963
		}
	],
	"buffers":[
		{
			"byteLength":14688,
			"uri":"hms_clyde_radar1.bin"
		}
	]
}
