{
	"asset":{
		"generator":"Khronos glTF Blender I/O v4.2.57",
		"version":"2.0"
	},
	"extensionsUsed":[
		"KHR_materials_specular",
		"KHR_materials_ior"
	],
	"scene":0,
	"scenes":[
		{
			"name":"Scene",
			"nodes":[
				2
			]
		}
	],
	"nodes":[
		{
			"mesh":0,
			"name":"prop_left_Hull_0"
		},
		{
			"children":[
				0
			],
			"name":"prop_left"
		},
		{
			"children":[
				1
			],
			"name":"RootNode"
		}
	],
	"materials":[
		{
			"doubleSided":true,
			"extensions":{
				"KHR_materials_specular":{
					"specularColorFactor":[
						0.0,
						0.0,
						0.0
					]
				},
				"KHR_materials_ior":{
					"ior":1000
				}
			},
			"name":"Hull",
			"pbrMetallicRoughness":{
				"baseColorTexture":{
					"index":0
				},
				"metallicFactor":0,
				"roughnessFactor":0.8929713368415833
			}
		}
	],
	"meshes":[
		{
			"name":"prop_left_Hull_0",
			"primitives":[
				{
					"attributes":{
						"POSITION":0,
						"NORMAL":1,
						"TEXCOORD_0":2
					},
					"indices":3,
					"material":0
				}
			]
		}
	],
	"textures":[
		{
			"sampler":0,
			"source":0
		}
	],
	"images":[
		{
			"mimeType":"image/png",
			"name":"Hull_diffuse",
			"uri":"Hull_diffuse.png"
		}
	],
	"accessors":[
		{
			"bufferView":0,
			"componentType":5126,
			"count":103,
			"max":[
				0.7309684753417969,
				1.1063419580459595,
				1.021740436553955
			],
			"min":[
				-0.9056949615478516,
				-1.0982229709625244,
				-1.1562199592590332
			],
			"type":"VEC3"
		},
		{
			"bufferView":1,
			"componentType":5126,
			"count":103,
			"type":"VEC3"
		},
		{
			"bufferView":2,
			"componentType":5126,
			"count":103,
			"type":"VEC2"
		},
		{
			"bufferView":3,
			"componentType":5123,
			"count":270,
			"type":"SCALAR"
		}
	],
	"bufferViews":[
		{
			"buffer":0,
			"byteLength":1236,
			"byteOffset":0,
			"target":34962
		},
		{
			"buffer":0,
			"byteLength":1236,
			"byteOffset":1236,
			"target":34962
		},
		{
			"buffer":0,
			"byteLength":824,
			"byteOffset":2472,
			"target":34962
		},
		{
			"buffer":0,
			"byteLength":540,
			"byteOffset":3296,
			"target":34963
		}
	],
	"samplers":[
		{
			"magFilter":9729,
			"minFilter":9987
		}
	],
	"buffers":[
		{
			"byteLength":3836,
			"uri":"hms_clyde_propeller1.bin"
		}
	]
}
